<svg xmlns="http://www.w3.org/2000/svg" width="20" height="20" viewBox="0 0 20 20" fill="none">
<g clip-path="url(#clip0_36_3478)">
<path d="M16.7116 4.29826C16.3271 3.91373 15.7059 3.91373 15.3214 4.29826L10.5 9.10978L5.67861 4.2884C5.29408 3.90387 4.67292 3.90387 4.2884 4.2884C3.90387 4.67292 3.90387 5.29408 4.2884 5.67861L9.10978 10.5L4.2884 15.3214C3.90387 15.7059 3.90387 16.3271 4.2884 16.7116C4.67292 17.0961 5.29408 17.0961 5.67861 16.7116L10.5 11.8902L15.3214 16.7116C15.7059 17.0961 16.3271 17.0961 16.7116 16.7116C17.0961 16.3271 17.0961 15.7059 16.7116 15.3214L11.8902 10.5L16.7116 5.67861C17.0863 5.30394 17.0863 4.67292 16.7116 4.29826Z" fill="#667085"/>
</g>
<defs>
<clipPath id="clip0_36_3478">
<rect width="20" height="20" fill="white"/>
</clipPath>
</defs>
</svg>