<svg width="619" height="832" viewBox="0 0 619 832" fill="none" xmlns="http://www.w3.org/2000/svg">
<rect width="666" height="841" transform="translate(-47 -9)" fill="#344054" fill-opacity="0.15"/>
<path d="M552.267 661.26H508.151V661.68H552.267V661.26Z" fill="#EBEBEB"/>
<path d="M394.185 665.835H382.61V666.255H394.185V665.835Z" fill="#EBEBEB"/>
<path d="M506.819 645.651H481.258V646.071H506.819V645.651Z" fill="#EBEBEB"/>
<path d="M80.4058 648.477H22.8767V648.897H80.4058V648.477Z" fill="#EBEBEB"/>
<path d="M100.705 648.477H92.2739V648.897H100.705V648.477Z" fill="#EBEBEB"/>
<path d="M252.9 655.575H128.118V655.995H252.9V655.575Z" fill="#EBEBEB"/>
<path d="M270.549 559.18H13.3396C11.3224 559.18 9.3879 558.168 7.96155 556.367C6.5352 554.565 5.73389 552.123 5.73389 549.575V93.0301C5.75145 90.4975 6.56051 88.0762 7.98496 86.2932C9.40941 84.5102 11.3339 83.5099 13.3396 83.51H270.549C271.548 83.51 272.537 83.7584 273.459 84.2411C274.382 84.7237 275.221 85.4312 275.927 86.323C276.633 87.2149 277.193 88.2736 277.576 89.4389C277.958 90.6041 278.155 91.853 278.155 93.1142V549.575C278.155 550.837 277.958 552.086 277.576 553.251C277.193 554.416 276.633 555.475 275.927 556.367C275.221 557.258 274.382 557.966 273.459 558.449C272.537 558.931 271.548 559.18 270.549 559.18ZM13.3396 83.8464C11.4118 83.8509 9.56404 84.8199 8.2009 86.5412C6.83777 88.2625 6.07041 90.5958 6.06689 93.0301V549.575C6.07041 552.01 6.83777 554.343 8.2009 556.064C9.56404 557.786 11.4118 558.755 13.3396 558.759H270.549C272.477 558.755 274.324 557.786 275.688 556.064C277.051 554.343 277.818 552.01 277.822 549.575V93.0301C277.818 90.5958 277.051 88.2625 275.688 86.5412C274.324 84.8199 272.477 83.8509 270.549 83.8464H13.3396Z" fill="#EBEBEB"/>
<path d="M558.66 559.18H301.451C299.434 559.18 297.499 558.168 296.073 556.367C294.647 554.565 293.845 552.123 293.845 549.575V93.0301C293.863 90.4975 294.672 88.0762 296.097 86.2932C297.521 84.5102 299.446 83.5099 301.451 83.51H558.66C560.678 83.51 562.612 84.5219 564.038 86.323C565.465 88.1242 566.266 90.567 566.266 93.1142V549.575C566.266 552.123 565.465 554.565 564.038 556.367C562.612 558.168 560.678 559.18 558.66 559.18ZM301.451 83.8464C299.523 83.8509 297.676 84.8199 296.312 86.5412C294.949 88.2625 294.182 90.5958 294.178 93.0301V549.575C294.182 552.01 294.949 554.343 296.312 556.064C297.676 557.786 299.523 558.755 301.451 558.759H558.66C560.588 558.755 562.436 557.786 563.799 556.064C565.162 554.343 565.93 552.01 565.933 549.575V93.0301C565.93 90.5958 565.162 88.2625 563.799 86.5412C562.436 84.8199 560.588 83.8509 558.66 83.8464H301.451Z" fill="#EBEBEB"/>
<path d="M619 634.197H-47V634.617H619V634.197Z" fill="#EBEBEB"/>
<path d="M111.948 520.409C110.829 504.161 97.6951 498.089 82.1241 499.805C66.553 501.521 54.4717 510.385 55.564 526.633L111.948 520.409Z" fill="#F0F0F0"/>
<path d="M81.6179 492.387C88.8374 491.58 91.1417 483.876 90.5157 474.76C89.8896 465.644 86.5197 458.562 79.3269 459.353C72.1341 460.143 69.8031 467.864 70.4291 476.98C71.0552 486.097 74.3985 493.178 81.6179 492.387Z" fill="#F0F0F0"/>
<path d="M406.013 174.338C406.14 176.141 405.84 177.951 405.151 179.539C404.462 181.127 403.416 182.421 402.145 183.258C400.874 184.095 399.435 184.437 398.01 184.241C396.584 184.044 395.237 183.319 394.139 182.155C393.04 180.992 392.24 179.443 391.839 177.705C391.438 175.967 391.454 174.118 391.885 172.392C392.316 170.665 393.143 169.139 394.262 168.007C395.38 166.874 396.739 166.186 398.168 166.029C400.08 165.819 401.981 166.576 403.452 168.134C404.923 169.692 405.844 171.923 406.013 174.338Z" fill="#F5F5F5"/>
<path d="M446.066 169.864C446.19 171.663 445.889 173.469 445.2 175.052C444.511 176.635 443.466 177.925 442.196 178.758C440.927 179.591 439.491 179.93 438.069 179.732C436.647 179.534 435.304 178.809 434.208 177.647C433.113 176.485 432.315 174.939 431.916 173.204C431.516 171.47 431.533 169.625 431.964 167.902C432.395 166.18 433.221 164.658 434.337 163.528C435.453 162.398 436.809 161.711 438.234 161.555C440.145 161.35 442.042 162.109 443.51 163.666C444.978 165.224 445.897 167.452 446.066 169.864Z" fill="#F5F5F5"/>
<path d="M486.133 165.44C486.259 167.244 485.959 169.054 485.271 170.641C484.582 172.229 483.536 173.524 482.265 174.36C480.994 175.197 479.554 175.539 478.129 175.343C476.704 175.147 475.357 174.421 474.259 173.258C473.16 172.094 472.36 170.546 471.959 168.808C471.557 167.07 471.573 165.22 472.005 163.494C472.436 161.768 473.263 160.241 474.382 159.109C475.5 157.976 476.859 157.288 478.288 157.131C480.2 156.921 482.101 157.678 483.572 159.236C485.043 160.794 485.964 163.025 486.133 165.44Z" fill="#F5F5F5"/>
<path d="M409.583 225.841C409.709 227.644 409.409 229.454 408.721 231.042C408.032 232.63 406.986 233.924 405.715 234.761C404.444 235.598 403.004 235.94 401.579 235.744C400.154 235.547 398.807 234.821 397.709 233.658C396.61 232.495 395.81 230.946 395.409 229.208C395.007 227.47 395.023 225.621 395.455 223.895C395.886 222.168 396.713 220.642 397.832 219.509C398.95 218.377 400.309 217.689 401.738 217.532C403.65 217.322 405.551 218.079 407.022 219.637C408.492 221.195 409.414 223.426 409.583 225.841Z" fill="#F5F5F5"/>
<path d="M449.636 221.434C449.76 223.234 449.458 225.039 448.769 226.622C448.081 228.205 447.035 229.495 445.766 230.328C444.497 231.161 443.061 231.5 441.639 231.302C440.217 231.104 438.873 230.379 437.778 229.217C436.683 228.055 435.885 226.509 435.486 224.774C435.086 223.04 435.103 221.195 435.534 219.472C435.965 217.75 436.79 216.228 437.907 215.098C439.023 213.968 440.379 213.281 441.804 213.125C442.75 213.021 443.704 213.154 444.609 213.515C445.515 213.876 446.356 214.459 447.083 215.231C447.81 216.003 448.41 216.947 448.848 218.012C449.286 219.076 449.554 220.239 449.636 221.434Z" fill="#F5F5F5"/>
<path d="M489.703 216.994C489.829 218.797 489.529 220.607 488.841 222.195C488.152 223.783 487.106 225.077 485.835 225.914C484.564 226.751 483.124 227.093 481.699 226.896C480.274 226.7 478.927 225.974 477.829 224.811C476.73 223.648 475.93 222.099 475.528 220.361C475.127 218.623 475.143 216.774 475.575 215.047C476.006 213.321 476.833 211.795 477.951 210.662C479.07 209.529 480.429 208.841 481.857 208.684C483.77 208.474 485.67 209.232 487.141 210.789C488.612 212.347 489.534 214.579 489.703 216.994Z" fill="#F5F5F5"/>
<path d="M413.153 277.411C413.276 279.211 412.975 281.016 412.286 282.599C411.597 284.182 410.552 285.472 409.283 286.305C408.013 287.138 406.577 287.477 405.155 287.279C403.733 287.081 402.39 286.356 401.295 285.194C400.199 284.032 399.401 282.486 399.002 280.751C398.603 279.017 398.619 277.172 399.05 275.449C399.481 273.727 400.307 272.205 401.423 271.075C402.539 269.945 403.895 269.258 405.321 269.102C406.267 268.996 407.221 269.127 408.128 269.487C409.034 269.848 409.875 270.431 410.603 271.203C411.331 271.975 411.931 272.92 412.368 273.986C412.806 275.051 413.072 276.215 413.153 277.411Z" fill="#F5F5F5"/>
<path d="M453.219 272.97C453.346 274.774 453.046 276.584 452.357 278.172C451.669 279.76 450.622 281.054 449.351 281.891C448.08 282.728 446.641 283.07 445.216 282.873C443.79 282.677 442.443 281.951 441.345 280.788C440.247 279.624 439.446 278.076 439.045 276.338C438.644 274.6 438.66 272.751 439.091 271.024C439.522 269.298 440.35 267.772 441.468 266.639C442.586 265.506 443.946 264.818 445.374 264.661C447.286 264.451 449.187 265.208 450.658 266.766C452.129 268.324 453.05 270.556 453.219 272.97Z" fill="#F5F5F5"/>
<path d="M493.273 268.53C493.399 270.333 493.099 272.143 492.41 273.731C491.722 275.319 490.676 276.613 489.404 277.45C488.133 278.287 486.694 278.629 485.269 278.433C483.844 278.236 482.497 277.511 481.398 276.347C480.3 275.184 479.499 273.635 479.098 271.897C478.697 270.159 478.713 268.31 479.144 266.584C479.576 264.857 480.403 263.331 481.521 262.199C482.64 261.066 483.999 260.378 485.427 260.221C487.34 260.011 489.24 260.768 490.711 262.326C492.182 263.884 493.103 266.115 493.273 268.53Z" fill="#F5F5F5"/>
<path d="M484.615 271.524L402.324 280.607L475.291 168.653L400.552 176.911C400.343 176.937 400.133 176.909 399.933 176.83C399.733 176.751 399.547 176.623 399.387 176.452C399.227 176.281 399.095 176.071 399 175.836C398.905 175.6 398.849 175.342 398.834 175.078C398.797 174.549 398.928 174.024 399.197 173.617C399.467 173.21 399.854 172.955 400.272 172.908L482.577 163.826L409.596 275.779L484.361 267.521C484.783 267.479 485.2 267.647 485.524 267.99C485.848 268.333 486.052 268.823 486.093 269.354C486.109 269.619 486.084 269.886 486.019 270.139C485.953 270.392 485.848 270.626 485.711 270.827C485.574 271.029 485.406 271.194 485.218 271.314C485.03 271.433 484.825 271.505 484.615 271.524Z" fill="#E6E6E6"/>
<path d="M485.88 471.396C485.753 470.906 485.515 470.474 485.195 470.154C484.876 469.834 484.488 469.64 484.082 469.596C480.503 469.388 477.116 467.498 474.585 464.298C471.294 460.11 469.363 453.769 469.043 446.233C469.013 445.553 468.778 444.914 468.387 444.445C467.996 443.976 467.478 443.714 466.939 443.71C466.647 443.712 466.359 443.789 466.092 443.935C465.824 444.081 465.583 444.294 465.383 444.561C465.182 444.829 465.027 445.144 464.926 445.49C464.825 445.835 464.78 446.202 464.794 446.57C465.167 455.417 467.538 462.986 471.574 468.083C474.735 472.08 478.928 474.51 483.389 474.928H483.695C484.046 474.962 484.397 474.886 484.718 474.707C485.04 474.528 485.321 474.251 485.537 473.901C485.753 473.552 485.898 473.14 485.958 472.703C486.017 472.266 485.991 471.817 485.88 471.396Z" fill="#F0F0F0"/>
<path d="M481.617 503.674C463.968 501.722 451.235 486.534 447.212 462.818C447.148 462.462 447.142 462.093 447.193 461.734C447.245 461.374 447.354 461.032 447.513 460.727C447.673 460.422 447.879 460.161 448.12 459.96C448.361 459.758 448.632 459.621 448.917 459.555C449.456 459.434 450.011 459.579 450.467 459.961C450.924 460.343 451.246 460.933 451.368 461.607C454.977 482.918 466.299 496.576 482.004 498.308C499.213 500.209 517.688 485.912 521.005 449.883C521.062 449.181 521.336 448.535 521.767 448.085C522.198 447.635 522.752 447.417 523.309 447.478C523.591 447.507 523.866 447.608 524.117 447.774C524.368 447.939 524.59 448.167 524.77 448.443C524.95 448.719 525.085 449.038 525.165 449.38C525.246 449.723 525.272 450.083 525.24 450.438C522.057 484.415 504.368 506.18 481.617 503.674Z" fill="#F0F0F0"/>
<path d="M448.318 439.186C448.035 439.156 447.761 439.056 447.51 438.89C447.259 438.724 447.037 438.497 446.857 438.221C446.676 437.945 446.542 437.626 446.461 437.283C446.38 436.941 446.355 436.581 446.386 436.225C449.556 402.249 467.245 380.467 489.983 382.99C509.963 385.194 523.349 404.032 525.44 432.407C525.462 432.763 525.427 433.122 525.338 433.461C525.249 433.8 525.108 434.113 524.922 434.383C524.736 434.652 524.509 434.872 524.255 435.029C524.001 435.187 523.725 435.279 523.442 435.3C522.886 435.333 522.342 435.092 521.925 434.627C521.507 434.163 521.249 433.511 521.205 432.811C519.273 407.245 507.325 390.307 489.623 388.356C472.48 386.455 453.925 400.735 450.622 436.73C450.598 437.082 450.52 437.425 450.392 437.74C450.263 438.054 450.087 438.333 449.873 438.561C449.659 438.789 449.411 438.961 449.144 439.069C448.878 439.176 448.597 439.216 448.318 439.186Z" fill="#F0F0F0"/>
<path d="M482.483 489.259C479.319 488.938 476.218 487.961 473.306 486.366C473.034 486.215 472.79 485.996 472.589 485.72C472.389 485.445 472.235 485.12 472.139 484.766C472.042 484.412 472.005 484.036 472.03 483.663C472.054 483.29 472.139 482.927 472.28 482.598C472.53 482.02 472.941 481.579 473.433 481.362C473.925 481.144 474.464 481.165 474.944 481.421C477.721 482.927 480.69 483.793 483.709 483.977C496.749 484.919 510.522 473.246 511.88 445.056C512.706 427.681 507.991 413.653 499.2 406.942C498.745 406.594 498.409 406.044 498.259 405.4C498.108 404.756 498.154 404.064 498.387 403.46C498.52 403.126 498.705 402.831 498.932 402.591C499.159 402.352 499.422 402.174 499.705 402.068C499.989 401.962 500.287 401.931 500.58 401.977C500.873 402.022 501.156 402.144 501.411 402.333C511.601 410.104 517.062 425.881 516.13 445.375C514.798 472.557 501.398 490.655 483.456 489.36L482.483 489.259Z" fill="#F0F0F0"/>
<path d="M463.516 472.489C463.27 472.699 462.994 472.842 462.703 472.911C462.411 472.98 462.112 472.972 461.824 472.889C461.535 472.805 461.263 472.647 461.025 472.425C460.787 472.203 460.587 471.921 460.439 471.598C456.49 462.328 454.755 451.811 455.444 441.322C456.696 415.301 469.043 397.59 485.813 397.287C486.109 397.28 486.402 397.349 486.675 397.492C486.948 397.634 487.195 397.846 487.4 398.114C487.605 398.383 487.764 398.702 487.867 399.052C487.97 399.401 488.014 399.774 487.998 400.147C487.965 400.819 487.733 401.452 487.348 401.919C486.963 402.386 486.453 402.654 485.92 402.67C473.479 402.972 460.985 414.847 459.706 441.641C459.059 451.11 460.605 460.611 464.155 468.991C464.422 469.572 464.505 470.26 464.386 470.916C464.267 471.571 463.956 472.146 463.516 472.523V472.489Z" fill="#F0F0F0"/>
<path d="M492.633 470.37C492.431 469.772 492.408 469.102 492.567 468.483C492.726 467.865 493.057 467.34 493.499 467.006C499.107 462.751 502.543 453.819 502.596 443.038C502.596 434.409 500.665 427.109 497.015 422.483C495.598 420.71 493.909 419.321 492.051 418.401C490.194 417.481 488.207 417.051 486.213 417.135C479.646 417.135 474.318 421.693 471.374 429.699C471.147 430.308 470.747 430.786 470.253 431.038C469.76 431.291 469.209 431.299 468.71 431.062C468.433 430.932 468.179 430.73 467.966 430.471C467.753 430.211 467.584 429.898 467.472 429.552C467.359 429.206 467.305 428.834 467.311 428.46C467.318 428.085 467.386 427.717 467.512 427.378C471.161 417.572 477.994 411.769 486.16 411.752C488.717 411.669 491.262 412.24 493.64 413.431C496.019 414.622 498.182 416.408 499.999 418.682C504.461 424.334 506.886 432.996 506.832 443.088C506.752 455.787 502.517 466.451 495.617 471.682C495.356 471.862 495.067 471.971 494.771 472.002C494.474 472.033 494.176 471.985 493.895 471.862C493.613 471.738 493.356 471.541 493.139 471.284C492.922 471.028 492.749 470.716 492.633 470.37Z" fill="#F0F0F0"/>
<path d="M477.289 450.506C477.004 450.652 476.698 450.719 476.391 450.702C476.084 450.685 475.783 450.584 475.51 450.407C475.237 450.23 474.997 449.98 474.808 449.675C474.618 449.369 474.483 449.016 474.411 448.639C474.265 447.915 474.158 447.158 474.065 446.385C472.853 436.293 477.142 427.563 484.028 425.999C485.632 425.558 487.295 425.598 488.884 426.115C490.473 426.632 491.944 427.612 493.179 428.976C493.411 429.236 493.593 429.559 493.713 429.921C493.832 430.282 493.885 430.673 493.869 431.064C493.852 431.455 493.766 431.836 493.617 432.179C493.467 432.523 493.259 432.819 493.006 433.046L492.873 433.164C492.473 433.515 491.991 433.681 491.505 433.635C491.02 433.589 490.562 433.334 490.209 432.912C489.462 432.115 488.579 431.549 487.628 431.257C486.678 430.965 485.688 430.956 484.734 431.23C479.486 432.424 477.488 439.32 478.234 445.51C478.314 446.116 478.394 446.704 478.514 447.192C478.643 447.826 478.585 448.496 478.353 449.081C478.12 449.665 477.728 450.123 477.249 450.371L477.289 450.506Z" fill="#F0F0F0"/>
<path d="M484.335 460.867C483.999 460.825 483.677 460.676 483.399 460.434C483.122 460.191 482.898 459.864 482.748 459.481C482.599 459.099 482.529 458.675 482.546 458.249C482.562 457.824 482.665 457.41 482.843 457.049L483.029 456.679C483.221 456.293 483.492 455.981 483.814 455.776C484.135 455.572 484.495 455.482 484.854 455.518C485.523 455.566 486.193 455.515 486.852 455.367C491.434 454.324 493.512 448.941 493.512 443.458C493.499 442.799 493.675 442.157 494.008 441.65C494.341 441.143 494.809 440.805 495.324 440.7C495.619 440.643 495.921 440.665 496.21 440.765C496.498 440.865 496.766 441.04 496.998 441.28C497.229 441.519 497.417 441.817 497.551 442.155C497.685 442.493 497.761 442.862 497.775 443.239C497.895 452.019 493.779 459.269 487.611 460.665C486.531 460.917 485.429 460.985 484.335 460.867Z" fill="#F0F0F0"/>
<path d="M485.28 450.926C484.205 450.812 483.185 450.275 482.363 449.391C481.541 448.507 480.959 447.321 480.698 445.998C480.623 445.625 480.62 445.234 480.688 444.859C480.757 444.483 480.895 444.134 481.091 443.84C481.288 443.545 481.537 443.314 481.819 443.166C482.1 443.018 482.406 442.956 482.71 442.987H483.203C483.575 443.036 483.929 443.222 484.22 443.52C484.511 443.819 484.727 444.218 484.841 444.669C484.887 444.904 484.991 445.114 485.136 445.271C485.282 445.427 485.463 445.523 485.653 445.544C486.679 445.661 486.852 443.862 486.879 443.424C486.941 442.77 486.843 442.107 486.599 441.524C486.232 440.963 486.042 440.25 486.066 439.522C486.1 438.988 486.26 438.478 486.524 438.059C486.789 437.64 487.146 437.33 487.551 437.169C487.957 437.008 488.39 437.004 488.797 437.156C489.204 437.309 489.566 437.611 489.836 438.025C490.875 439.684 491.354 441.793 491.168 443.895C490.822 448.319 488.357 451.262 485.28 450.926Z" fill="#F0F0F0"/>
<path d="M445.214 390.727C444.935 390.698 444.664 390.599 444.416 390.436C444.168 390.274 443.948 390.051 443.768 389.78C443.589 389.51 443.453 389.197 443.37 388.86C443.287 388.523 443.257 388.169 443.283 387.817L444.894 364.488L463.369 366.54C463.648 366.57 463.919 366.669 464.167 366.831C464.415 366.994 464.635 367.217 464.815 367.487C464.994 367.758 465.13 368.07 465.213 368.407C465.296 368.744 465.326 369.099 465.301 369.45C465.277 369.802 465.199 370.145 465.07 370.46C464.942 370.774 464.765 371.053 464.551 371.281C464.337 371.509 464.09 371.682 463.823 371.789C463.556 371.896 463.275 371.936 462.996 371.906L448.77 370.325L447.532 388.288C447.507 388.641 447.427 388.984 447.297 389.297C447.166 389.61 446.989 389.888 446.773 390.115C446.558 390.341 446.31 390.512 446.042 390.617C445.774 390.722 445.493 390.76 445.214 390.727Z" fill="#F0F0F0"/>
<path d="M533.033 400.432C532.754 400.403 532.483 400.304 532.235 400.141C531.987 399.979 531.767 399.756 531.587 399.485C531.408 399.215 531.272 398.902 531.189 398.565C531.106 398.228 531.076 397.874 531.101 397.523L532.34 379.559L518.114 377.995C517.835 377.963 517.564 377.862 517.316 377.698C517.067 377.533 516.847 377.309 516.668 377.037C516.489 376.765 516.353 376.451 516.27 376.113C516.187 375.776 516.157 375.42 516.183 375.068C516.206 374.716 516.285 374.374 516.413 374.061C516.542 373.747 516.719 373.469 516.933 373.242C517.147 373.016 517.395 372.845 517.662 372.74C517.928 372.634 518.209 372.597 518.487 372.629L536.962 374.664L535.35 398.044C535.29 398.747 535.013 399.391 534.579 399.838C534.146 400.285 533.59 400.498 533.033 400.432Z" fill="#F0F0F0"/>
<path d="M526.493 525.876L508.018 523.841C507.739 523.809 507.467 523.708 507.219 523.544C506.971 523.38 506.751 523.155 506.571 522.883C506.392 522.611 506.257 522.298 506.174 521.96C506.09 521.622 506.061 521.266 506.086 520.914C506.11 520.562 506.188 520.22 506.317 519.907C506.446 519.593 506.622 519.315 506.836 519.089C507.051 518.862 507.298 518.691 507.565 518.586C507.832 518.48 508.112 518.443 508.391 518.475L522.616 520.039L523.855 502.093C523.879 501.739 523.957 501.394 524.087 501.079C524.216 500.763 524.394 500.484 524.609 500.255C524.825 500.027 525.074 499.855 525.342 499.749C525.61 499.643 525.893 499.604 526.173 499.637C526.451 499.666 526.723 499.765 526.971 499.928C527.219 500.09 527.439 500.313 527.618 500.584C527.798 500.854 527.933 501.167 528.017 501.504C528.1 501.841 528.13 502.195 528.104 502.547L526.493 525.876Z" fill="#F0F0F0"/>
<path d="M452.9 517.701L434.425 515.649L436.036 492.337C436.091 491.626 436.364 490.97 436.797 490.51C437.231 490.051 437.79 489.825 438.354 489.881C438.633 489.913 438.905 490.014 439.153 490.178C439.401 490.342 439.621 490.567 439.801 490.839C439.98 491.111 440.115 491.424 440.198 491.762C440.282 492.1 440.311 492.455 440.286 492.808L439.047 510.738L453.259 512.319C453.538 512.349 453.81 512.448 454.059 512.61C454.308 512.772 454.529 512.995 454.709 513.265C454.89 513.535 455.026 513.848 455.111 514.185C455.196 514.522 455.228 514.877 455.204 515.229C455.156 515.942 454.887 516.602 454.456 517.065C454.024 517.529 453.464 517.757 452.9 517.701Z" fill="#F0F0F0"/>
<path d="M52.5404 467.225C52.1933 467.258 51.8498 467.117 51.5834 466.835C51.317 466.552 51.1489 466.148 51.1151 465.711L50.1294 451.38L61.4781 450.119C61.8252 450.086 62.1686 450.226 62.435 450.509C62.7014 450.792 62.8695 451.195 62.9033 451.633C62.9257 452.068 62.8132 452.497 62.5895 452.83C62.3658 453.163 62.0485 453.373 61.7045 453.415L52.9666 454.391L53.7258 465.425C53.752 465.861 53.643 466.292 53.4217 466.628C53.2005 466.964 52.8844 467.178 52.5404 467.225Z" fill="#E0E0E0"/>
<path d="M106.54 461.254C106.195 461.287 105.853 461.149 105.587 460.87C105.321 460.59 105.151 460.191 105.114 459.757L104.355 448.706L95.6039 449.681C95.2568 449.714 94.9133 449.574 94.647 449.291C94.3806 449.008 94.2125 448.605 94.1787 448.168C94.1527 447.729 94.2635 447.296 94.4876 446.959C94.7116 446.623 95.0311 446.411 95.3775 446.368L106.726 445.123L107.725 459.454C107.751 459.89 107.642 460.321 107.421 460.657C107.2 460.993 106.884 461.207 106.54 461.254Z" fill="#E0E0E0"/>
<path d="M112.134 523L100.772 524.261C100.425 524.294 100.081 524.154 99.8151 523.871C99.5488 523.588 99.3807 523.185 99.3468 522.747C99.3208 522.309 99.4317 521.875 99.6558 521.539C99.8798 521.203 100.199 520.99 100.546 520.948L109.284 519.989L108.524 508.955C108.498 508.519 108.607 508.088 108.828 507.752C109.05 507.416 109.366 507.202 109.71 507.155C110.055 507.122 110.396 507.26 110.662 507.539C110.928 507.819 111.098 508.218 111.135 508.652L112.134 523Z" fill="#E0E0E0"/>
<path d="M66.8727 527.995L55.564 529.24L54.565 514.893C54.5426 514.457 54.6551 514.028 54.8788 513.695C55.1025 513.362 55.4198 513.152 55.7638 513.11C56.1066 513.081 56.4449 513.221 56.708 513.5C56.9711 513.779 57.1387 514.175 57.1757 514.607L57.9483 525.657L66.6862 524.682C67.0333 524.649 67.3768 524.789 67.6431 525.072C67.9095 525.355 68.0776 525.758 68.1114 526.196C68.1241 526.417 68.1021 526.639 68.0466 526.849C67.9912 527.059 67.9034 527.253 67.7883 527.421C67.6732 527.588 67.533 527.725 67.3759 527.823C67.2188 527.922 67.0477 527.98 66.8727 527.995Z" fill="#E0E0E0"/>
<path d="M105.621 228.162L62.224 232.872L61.3316 220.038C61.2663 213.913 63.0376 207.983 66.29 203.438C69.5424 198.894 74.0353 196.07 78.8676 195.534C83.6999 194.997 88.5141 196.788 92.3445 200.547C96.1749 204.305 98.7381 209.754 99.52 215.799L100.026 223.267L106.3 222.578L105.78 215.11C105.488 210.897 104.542 206.799 102.996 203.049C101.449 199.298 99.3329 195.969 96.7676 193.251C94.2024 190.534 91.2383 188.481 88.0447 187.21C84.8511 185.938 81.4905 185.474 78.1547 185.843C71.4179 186.588 65.1914 190.682 60.8449 197.224C58.6927 200.463 57.0669 204.206 56.0602 208.239C55.0536 212.272 54.6858 216.515 54.9779 220.728L55.8704 233.645C53.3993 234.256 51.1943 235.999 49.6796 238.539C48.1649 241.079 47.4474 244.236 47.6652 247.404L50.7688 292.213C50.8795 293.904 51.2537 295.551 51.8698 297.059C52.486 298.567 53.332 299.906 54.3593 301C55.3865 302.094 56.5748 302.921 57.8559 303.434C59.137 303.946 60.4857 304.134 61.8244 303.987L110.482 298.621C111.822 298.481 113.126 298.009 114.32 297.231C115.514 296.453 116.575 295.384 117.441 294.087C118.308 292.79 118.963 291.289 119.369 289.672C119.774 288.054 119.923 286.351 119.806 284.66L116.703 239.852C116.584 238.165 116.203 236.524 115.581 235.023C114.96 233.523 114.11 232.191 113.081 231.106C112.052 230.02 110.863 229.201 109.583 228.696C108.303 228.191 106.956 228.009 105.621 228.162ZM87.1591 262.693L88.2246 278.117C88.2964 278.738 88.267 279.371 88.1382 279.977C88.0095 280.583 87.7842 281.149 87.4761 281.641C87.1679 282.133 86.7835 282.541 86.3463 282.839C85.909 283.136 85.4283 283.319 84.9334 283.374C84.4385 283.429 83.9399 283.356 83.4682 283.159C82.9965 282.962 82.5616 282.646 82.1901 282.229C81.8186 281.813 81.5183 281.305 81.3077 280.736C81.0971 280.168 80.9806 279.552 80.9653 278.925L79.8996 263.484C78.8008 262.632 77.9429 261.364 77.448 259.86C76.9531 258.356 76.8466 256.694 77.1435 255.109C77.4405 253.525 78.1257 252.099 79.1018 251.034C80.0778 249.97 81.2949 249.322 82.5796 249.182C83.8644 249.042 85.1513 249.418 86.2573 250.255C87.3632 251.093 88.2316 252.349 88.739 253.846C89.2464 255.343 89.3668 257.004 89.0832 258.593C88.7995 260.181 88.1262 261.616 87.1591 262.693Z" fill="#EBEBEB"/>
<path d="M180.026 254.048L175.644 244.982C173.435 245.379 171.193 245.379 168.984 244.982L164.588 254.014L163.749 253.728C160.901 252.781 158.167 251.349 155.624 249.473L154.878 248.935L156.729 239.112C156.765 238.921 156.831 238.742 156.922 238.583C157.013 238.425 157.129 238.291 157.261 238.189C157.394 238.088 157.541 238.02 157.694 237.991C157.848 237.962 158.004 237.971 158.155 238.019C158.457 238.11 158.717 238.35 158.88 238.684C159.042 239.018 159.093 239.42 159.02 239.801L157.555 247.455C159.448 248.757 161.444 249.805 163.509 250.583L167.798 241.736L168.584 241.904C171.072 242.409 173.608 242.409 176.097 241.904L176.869 241.736L181.158 250.583C183.226 249.811 185.222 248.763 187.112 247.455L185.208 237.363L185.847 236.774C187.582 235.194 189.137 233.32 190.469 231.206C190.654 230.902 190.926 230.7 191.226 230.644C191.527 230.587 191.833 230.68 192.081 230.904C192.21 231.017 192.32 231.163 192.403 231.332C192.487 231.501 192.542 231.689 192.566 231.886C192.59 232.083 192.581 232.284 192.541 232.476C192.501 232.669 192.431 232.849 192.334 233.006C191.025 235.093 189.517 236.969 187.845 238.59L189.803 248.901L189.044 249.439C186.504 251.313 183.775 252.744 180.932 253.695L180.026 254.048ZM153.093 234.301C152.733 233.78 152.374 233.225 152.027 232.619L143.862 235.092L143.423 234.15C141.948 230.931 140.815 227.482 140.053 223.89L139.84 222.83L146.992 217.279C146.678 214.49 146.678 211.659 146.992 208.869L139.84 203.336L140.053 202.259C140.815 198.673 141.948 195.229 143.423 192.016L143.862 191.057L152.027 193.53C153.391 191.277 154.985 189.263 156.769 187.542L155.291 179.737C155.219 179.356 155.269 178.954 155.432 178.62C155.594 178.285 155.855 178.046 156.157 177.954C156.305 177.909 156.46 177.902 156.611 177.933C156.762 177.964 156.906 178.032 157.036 178.133C157.166 178.235 157.279 178.368 157.368 178.525C157.457 178.682 157.521 178.86 157.555 179.048L159.407 188.77L158.767 189.341C156.715 191.206 154.916 193.478 153.439 196.069L152.973 196.877L144.981 194.472C143.945 196.859 143.115 199.38 142.504 201.99L149.497 207.406L149.377 208.382C148.932 211.519 148.932 214.731 149.377 217.868L149.497 218.861L142.504 224.277C143.117 226.881 143.948 229.395 144.981 231.778L152.973 229.373L153.439 230.18C153.853 230.943 154.298 231.678 154.771 232.384C154.977 232.656 155.091 233.017 155.091 233.393C155.091 233.769 154.977 234.13 154.771 234.402C154.658 234.539 154.523 234.646 154.376 234.716C154.229 234.785 154.072 234.816 153.915 234.807C153.758 234.797 153.604 234.748 153.463 234.661C153.322 234.574 153.196 234.452 153.093 234.301ZM200.699 235.125L197.688 234.217C197.387 234.125 197.126 233.886 196.963 233.552C196.801 233.218 196.75 232.816 196.823 232.434C196.895 232.053 197.085 231.724 197.349 231.519C197.614 231.314 197.933 231.25 198.235 231.341L199.567 231.728C200.596 229.344 201.422 226.83 202.031 224.226L195.038 218.81L195.171 217.818C195.616 214.681 195.616 211.468 195.171 208.331L195.038 207.356L202.031 201.94C201.424 199.33 200.598 196.809 199.567 194.421L191.575 196.826L191.122 196.019C189.642 193.431 187.843 191.16 185.794 189.291L185.154 188.719L187.059 178.627C185.168 177.324 183.172 176.281 181.105 175.515L176.776 184.43L176.003 184.262C173.515 183.757 170.979 183.757 168.491 184.262L167.705 184.43L163.456 175.549L162.657 175.852C162.372 175.97 162.062 175.943 161.794 175.777C161.525 175.61 161.318 175.317 161.218 174.96C161.163 174.776 161.138 174.58 161.144 174.383C161.15 174.186 161.186 173.993 161.252 173.814C161.318 173.636 161.411 173.476 161.527 173.343C161.642 173.211 161.777 173.109 161.924 173.043C162.51 172.807 163.11 172.589 163.696 172.387L164.535 172.101L168.931 181.15C171.138 180.736 173.383 180.736 175.591 181.15L179.973 172.101L180.825 172.387C183.667 173.345 186.395 174.776 188.937 176.642L189.696 177.197L187.738 187.508C189.525 189.226 191.12 191.24 192.48 193.496L200.645 191.023L201.085 191.982C202.565 195.191 203.699 198.637 204.455 202.226L204.681 203.302L197.515 208.836C197.847 211.623 197.847 214.458 197.515 217.246L204.681 222.796L204.455 223.856C203.699 227.451 202.565 230.901 201.085 234.116L200.699 235.125ZM171.954 227.489C169.052 227.344 166.299 225.823 164.245 223.229C162.191 220.636 160.987 217.16 160.872 213.495C160.793 209.89 161.785 206.378 163.654 203.651C165.522 200.924 168.132 199.18 170.968 198.761C171.135 198.734 171.304 198.753 171.464 198.816C171.624 198.878 171.772 198.982 171.898 199.122C172.024 199.262 172.125 199.434 172.194 199.627C172.264 199.82 172.3 200.029 172.3 200.241C172.299 200.599 172.194 200.943 172.005 201.21C171.816 201.476 171.556 201.646 171.275 201.687C169.301 201.972 167.456 203.066 166.022 204.803C164.589 206.54 163.647 208.823 163.34 211.302C163.034 213.78 163.38 216.317 164.327 218.523C165.273 220.729 166.766 222.482 168.578 223.512C170.389 224.542 172.418 224.793 174.353 224.226C176.288 223.659 178.023 222.305 179.29 220.373C180.557 218.441 181.286 216.036 181.366 213.53C181.446 211.023 180.873 208.553 179.733 206.498C179.569 206.207 179.497 205.848 179.531 205.493C179.566 205.138 179.704 204.813 179.92 204.58C180.044 204.441 180.19 204.337 180.349 204.274C180.508 204.211 180.675 204.192 180.84 204.218C181.005 204.243 181.164 204.313 181.306 204.422C181.448 204.531 181.57 204.676 181.664 204.849C182.876 207.038 183.582 209.61 183.703 212.276C183.823 214.942 183.354 217.599 182.348 219.948C181.342 222.297 179.838 224.246 178.005 225.578C176.172 226.91 174.081 227.572 171.967 227.489H171.954Z" fill="#F0F0F0"/>
<path d="M97.2689 377.17L94.4318 371.334C92.9966 371.603 91.5379 371.603 90.1028 371.334L87.2656 377.17L86.7195 376.985C84.8807 376.373 83.1155 375.451 81.4714 374.244L80.9919 373.89L82.1907 367.533C82.2381 367.288 82.3597 367.077 82.5291 366.945C82.6985 366.813 82.9023 366.77 83.0964 366.826C83.1936 366.856 83.2852 366.909 83.366 366.984C83.4468 367.058 83.5151 367.152 83.5671 367.26C83.619 367.367 83.6537 367.487 83.6689 367.612C83.6841 367.737 83.6797 367.864 83.6559 367.987L82.7235 372.932C83.9455 373.777 85.2361 374.454 86.573 374.95L89.3435 369.248L89.8364 369.349C91.446 369.685 93.0885 369.685 94.6982 369.349L95.191 369.248L97.9749 374.95C99.3045 374.443 100.59 373.767 101.811 372.932L100.586 366.439L100.999 366.052C102.118 365.036 103.122 363.831 103.982 362.47C104.099 362.27 104.274 362.136 104.469 362.098C104.663 362.061 104.862 362.122 105.021 362.268C105.103 362.341 105.172 362.435 105.225 362.542C105.278 362.65 105.314 362.77 105.33 362.895C105.346 363.02 105.343 363.148 105.319 363.271C105.296 363.395 105.253 363.511 105.194 363.613C104.346 364.963 103.371 366.177 102.291 367.23L103.623 373.958L103.13 374.311C101.487 375.521 99.7212 376.443 97.8816 377.053L97.2689 377.17ZM79.873 364.404L79.1804 363.344L73.8524 364.925L73.5726 364.32C72.6343 362.235 71.9219 360 71.4548 357.676L71.3082 356.986L75.9303 353.404C75.7171 351.592 75.7171 349.749 75.9303 347.937L71.3082 344.355L71.4548 343.665C71.9376 341.342 72.668 339.113 73.6259 337.038L73.9056 336.416L79.2336 338.098C80.0904 336.625 81.0881 335.292 82.204 334.128L81.2583 329.082C81.2346 328.96 81.2303 328.834 81.2457 328.711C81.2611 328.587 81.2959 328.468 81.348 328.362C81.4 328.255 81.4684 328.163 81.5491 328.09C81.6297 328.018 81.7211 327.966 81.8177 327.938C82.0119 327.883 82.2157 327.925 82.3851 328.057C82.5545 328.19 82.676 328.4 82.7235 328.645L83.9223 334.919L83.496 335.305C82.176 336.501 81.0197 337.961 80.0728 339.628L79.7664 340.15L74.6249 338.602C73.9635 340.144 73.4279 341.767 73.0265 343.446L77.542 346.945L77.4621 347.584C77.3247 348.595 77.2534 349.619 77.249 350.645C77.2534 351.677 77.3247 352.706 77.4621 353.723L77.542 354.346L73.0265 357.844C73.4254 359.53 73.961 361.159 74.6249 362.705L79.7664 361.141L80.0728 361.662C80.348 362.16 80.646 362.638 80.9652 363.092C81.0964 363.267 81.1695 363.499 81.1695 363.74C81.1695 363.981 81.0964 364.212 80.9652 364.387C80.8964 364.483 80.8126 364.56 80.7191 364.613C80.6256 364.666 80.5245 364.694 80.422 364.696C80.3195 364.698 80.2179 364.672 80.1234 364.622C80.029 364.572 79.9437 364.498 79.873 364.404ZM110.629 364.925L108.684 364.354C108.587 364.324 108.495 364.27 108.415 364.196C108.334 364.122 108.266 364.028 108.214 363.92C108.162 363.812 108.127 363.692 108.112 363.568C108.096 363.443 108.101 363.316 108.125 363.193C108.147 363.071 108.188 362.956 108.245 362.854C108.303 362.752 108.376 362.666 108.46 362.6C108.545 362.534 108.638 362.49 108.736 362.471C108.834 362.451 108.934 362.457 109.03 362.487L109.87 362.739C110.539 361.196 111.075 359.566 111.468 357.878L106.953 354.379L107.032 353.757C107.17 352.74 107.241 351.711 107.246 350.679C107.241 349.653 107.17 348.629 107.032 347.618L106.953 346.978L111.468 343.48C111.072 341.798 110.537 340.175 109.87 338.636L104.728 340.183L104.422 339.662C103.475 337.995 102.319 336.535 100.999 335.339L100.586 334.952L101.811 328.46C100.592 327.617 99.3065 326.941 97.9749 326.441L95.191 332.143L94.6982 332.042C93.0885 331.706 91.446 331.706 89.8364 332.042L89.3435 332.143L86.573 326.441L86.0535 326.643C85.868 326.718 85.6666 326.699 85.4923 326.589C85.3181 326.479 85.1848 326.287 85.1211 326.054C85.0852 325.936 85.0685 325.811 85.072 325.684C85.0755 325.558 85.099 325.434 85.1413 325.319C85.1835 325.205 85.2436 325.102 85.318 325.017C85.3923 324.933 85.4794 324.868 85.574 324.827L86.7195 324.389L87.2656 324.221L90.1028 330.058C91.5379 329.788 92.9966 329.788 94.4318 330.058L97.2689 324.221L97.815 324.389C99.6532 325.012 101.418 325.94 103.063 327.148L103.556 327.501L102.224 334.229C103.371 335.349 104.4 336.649 105.288 338.098L110.616 336.416L110.895 337.038C111.853 339.113 112.584 341.342 113.066 343.665L113.213 344.355L108.591 347.937C108.804 349.749 108.804 351.592 108.591 353.404L113.213 356.986L113.066 357.676C112.581 359.998 111.851 362.227 110.895 364.303L110.629 364.925ZM92.0608 359.997C90.2509 359.84 88.5501 358.847 87.2833 357.207C86.0165 355.567 85.2726 353.396 85.1935 351.107C85.1144 348.818 85.7057 346.573 86.8546 344.8C88.0034 343.027 89.6292 341.85 91.4214 341.495C91.5283 341.481 91.6363 341.495 91.7385 341.537C91.8408 341.579 91.935 341.647 92.0152 341.737C92.0955 341.827 92.1599 341.938 92.2044 342.061C92.249 342.184 92.2726 342.318 92.2739 342.454C92.275 342.687 92.2075 342.913 92.0844 343.087C91.9614 343.261 91.7916 343.371 91.6079 343.396C90.4844 343.558 89.4221 344.127 88.549 345.035C87.676 345.942 87.0295 347.15 86.6875 348.511C86.3455 349.872 86.3227 351.329 86.6218 352.706C86.9209 354.083 87.5291 355.322 88.373 356.272C89.217 357.222 90.2607 357.844 91.3782 358.063C92.4958 358.281 93.6395 358.086 94.6713 357.502C95.7032 356.918 96.5793 355.969 97.1938 354.77C97.8083 353.572 98.1351 352.174 98.1347 350.746C98.1373 349.228 97.7648 347.746 97.0691 346.508C96.9674 346.316 96.9236 346.086 96.9456 345.857C96.9676 345.628 97.054 345.418 97.189 345.263C97.2692 345.172 97.3639 345.103 97.4667 345.062C97.5695 345.021 97.6781 345.008 97.7852 345.024C97.8923 345.04 97.9955 345.084 98.088 345.154C98.1804 345.225 98.2599 345.319 98.3212 345.431C99.1002 346.846 99.5532 348.507 99.6297 350.227C99.7062 351.948 99.4032 353.662 98.7544 355.179C98.1057 356.695 97.1366 357.955 95.9549 358.817C94.7732 359.68 93.4252 360.111 92.0608 360.064V359.997Z" fill="#E6E6E6"/>
<path d="M286 709.231C428.634 709.231 544.262 700.706 544.262 690.191C544.262 679.675 428.634 671.15 286 671.15C143.366 671.15 27.7385 679.675 27.7385 690.191C27.7385 700.706 143.366 709.231 286 709.231Z" fill="#F5F5F5"/>
<path d="M437.115 236.286H393.746L363.109 679.073H406.479C412.566 678.924 418.4 675.969 422.881 670.763C427.361 665.558 430.178 658.463 430.802 650.815L457.562 264.527C457.872 260.928 457.572 257.286 456.681 253.845C455.791 250.404 454.329 247.242 452.394 244.57C450.46 241.897 448.097 239.777 445.462 238.348C442.827 236.92 439.982 236.217 437.115 236.286Z" fill="#407BFF"/>
<path d="M428.271 236.286H281.485C275.397 236.43 269.562 239.381 265.079 244.583C260.596 249.786 257.776 256.879 257.149 264.527L230.389 650.815C230.081 654.411 230.382 658.05 231.272 661.488C232.162 664.926 233.621 668.087 235.552 670.759C237.483 673.431 239.842 675.554 242.472 676.988C245.103 678.421 247.944 679.131 250.809 679.072H397.582C403.661 678.908 409.483 675.946 413.955 670.742C418.426 665.539 421.239 658.452 421.864 650.815L448.624 264.527C448.934 260.938 448.636 257.306 447.75 253.873C446.865 250.44 445.412 247.284 443.488 244.614C441.563 241.944 439.211 239.821 436.588 238.385C433.965 236.949 431.13 236.234 428.271 236.286Z" fill="#407BFF"/>
<path opacity="0.3" d="M428.271 236.286H281.485C275.397 236.43 269.562 239.381 265.079 244.583C260.596 249.786 257.776 256.879 257.149 264.527L230.389 650.815C230.081 654.411 230.382 658.05 231.272 661.488C232.162 664.926 233.621 668.087 235.552 670.759C237.483 673.431 239.842 675.554 242.472 676.988C245.103 678.421 247.944 679.131 250.809 679.072H397.582C403.661 678.908 409.483 675.946 413.955 670.742C418.426 665.539 421.239 658.452 421.864 650.815L448.624 264.527C448.934 260.938 448.636 257.306 447.75 253.873C446.865 250.44 445.412 247.284 443.488 244.614C441.563 241.944 439.211 239.821 436.588 238.385C433.965 236.949 431.13 236.234 428.271 236.286Z" fill="white"/>
<path opacity="0.4" d="M427.645 245.335H388.937C387.783 245.347 386.658 245.796 385.709 246.623C384.759 247.451 384.027 248.619 383.609 249.978C382.082 254.966 379.413 259.267 375.942 262.332C372.472 265.397 368.356 267.086 364.122 267.184H341.291C337.303 267.286 333.412 265.628 330.288 262.497C327.163 259.365 325.002 254.956 324.175 250.028C323.955 248.695 323.372 247.501 322.528 246.653C321.684 245.805 320.631 245.357 319.553 245.386H280.858C276.721 245.478 272.754 247.482 269.708 251.019C266.662 254.555 264.748 259.379 264.328 264.577L237.555 650.865C237.341 653.311 237.542 655.787 238.145 658.127C238.748 660.467 239.74 662.617 241.053 664.435C242.367 666.253 243.972 667.696 245.762 668.668C247.552 669.641 249.486 670.12 251.435 670.074H398.221C402.359 669.977 406.327 667.97 409.372 664.43C412.418 660.891 414.332 656.065 414.751 650.865L441.511 264.577C441.729 262.13 441.531 259.653 440.931 257.31C440.33 254.967 439.341 252.813 438.028 250.992C436.716 249.17 435.111 247.724 433.32 246.748C431.529 245.773 429.595 245.291 427.645 245.335Z" fill="white"/>
<path d="M391.068 455.232H288.344C287.638 455.247 286.938 455.072 286.29 454.718C285.641 454.365 285.06 453.842 284.583 453.184C284.107 452.525 283.748 451.747 283.528 450.899C283.308 450.052 283.234 449.155 283.309 448.268L283.829 440.834C283.982 438.949 284.676 437.2 285.78 435.917C286.884 434.634 288.322 433.906 289.823 433.871H392.56C393.266 433.856 393.966 434.031 394.615 434.384C395.263 434.737 395.845 435.26 396.321 435.919C396.797 436.577 397.157 437.356 397.376 438.203C397.596 439.051 397.671 439.948 397.595 440.834L397.089 448.268C396.933 450.158 396.234 451.91 395.125 453.193C394.015 454.476 392.572 455.201 391.068 455.232Z" fill="white"/>
<path d="M388.857 487.19H286.12C285.414 487.205 284.714 487.03 284.067 486.677C283.419 486.323 282.838 485.8 282.363 485.141C281.888 484.482 281.529 483.703 281.311 482.856C281.093 482.008 281.021 481.112 281.098 480.226L281.604 472.792C281.76 470.908 282.455 469.161 283.559 467.879C284.662 466.597 286.099 465.868 287.598 465.829H390.336C391.042 465.814 391.742 465.989 392.39 466.342C393.039 466.695 393.62 467.218 394.096 467.877C394.572 468.535 394.932 469.314 395.152 470.161C395.372 471.009 395.446 471.906 395.371 472.792L394.851 480.226C394.696 482.11 394.001 483.857 392.897 485.14C391.793 486.422 390.357 487.151 388.857 487.19Z" fill="white"/>
<path opacity="0.1" d="M359.859 252.568C359.69 254.661 358.919 256.603 357.691 258.026C356.464 259.449 354.865 260.254 353.199 260.288C352.416 260.306 351.639 260.113 350.92 259.722C350.201 259.331 349.555 258.751 349.027 258.021C348.499 257.29 348.101 256.426 347.858 255.486C347.615 254.546 347.533 253.551 347.618 252.568C347.788 250.475 348.559 248.533 349.787 247.11C351.014 245.687 352.612 244.882 354.278 244.847C355.061 244.83 355.839 245.023 356.558 245.414C357.277 245.805 357.922 246.385 358.45 247.115C358.978 247.845 359.377 248.71 359.62 249.65C359.863 250.59 359.945 251.585 359.859 252.568Z" fill="black"/>
<path opacity="0.1" d="M357.089 252.568C356.995 253.71 356.573 254.77 355.903 255.548C355.234 256.325 354.362 256.767 353.452 256.79C353.024 256.8 352.599 256.695 352.205 256.482C351.812 256.268 351.459 255.951 351.17 255.551C350.881 255.151 350.664 254.679 350.531 254.164C350.399 253.65 350.355 253.105 350.402 252.568C350.493 251.424 350.914 250.362 351.584 249.584C352.255 248.805 353.128 248.365 354.039 248.346C354.466 248.338 354.89 248.445 355.283 248.66C355.676 248.874 356.028 249.191 356.316 249.59C356.604 249.989 356.822 250.461 356.955 250.974C357.089 251.488 357.134 252.031 357.089 252.568Z" fill="black"/>
<g opacity="0.8">
<path d="M409.57 265.452C409.34 265.456 409.112 265.398 408.901 265.283C408.69 265.167 408.501 264.997 408.346 264.782C408.191 264.567 408.074 264.314 408.002 264.038C407.931 263.762 407.907 263.47 407.931 263.181L408.224 259.044C408.273 258.432 408.498 257.865 408.857 257.449C409.215 257.034 409.682 256.799 410.169 256.79C410.398 256.786 410.624 256.843 410.834 256.958C411.044 257.072 411.233 257.241 411.387 257.454C411.542 257.667 411.659 257.918 411.732 258.192C411.804 258.466 411.83 258.756 411.807 259.044L411.514 263.181C411.466 263.794 411.241 264.364 410.883 264.782C410.525 265.2 410.057 265.439 409.57 265.452Z" fill="white"/>
<path d="M423.902 265.452C423.672 265.456 423.444 265.398 423.233 265.283C423.022 265.167 422.833 264.997 422.678 264.782C422.523 264.567 422.406 264.314 422.335 264.038C422.263 263.762 422.239 263.47 422.264 263.181L422.943 253.476C422.992 252.865 423.217 252.297 423.576 251.882C423.934 251.466 424.401 251.231 424.888 251.222C425.116 251.218 425.343 251.276 425.553 251.39C425.763 251.505 425.951 251.674 426.106 251.886C426.261 252.099 426.378 252.351 426.45 252.625C426.523 252.899 426.549 253.189 426.526 253.476L425.847 263.181C425.798 263.794 425.573 264.364 425.215 264.782C424.857 265.2 424.39 265.439 423.902 265.452Z" fill="white"/>
<path d="M416.736 265.452C416.506 265.456 416.278 265.398 416.067 265.283C415.856 265.167 415.667 264.997 415.512 264.782C415.357 264.567 415.24 264.314 415.169 264.038C415.097 263.762 415.073 263.47 415.097 263.181L415.577 256.268C415.626 255.652 415.853 255.081 416.214 254.662C416.575 254.243 417.045 254.007 417.535 253.998C417.764 253.993 417.992 254.051 418.202 254.166C418.413 254.282 418.601 254.453 418.755 254.668C418.909 254.883 419.025 255.137 419.094 255.413C419.164 255.689 419.187 255.98 419.16 256.268L418.681 263.181C418.632 263.794 418.407 264.364 418.049 264.782C417.691 265.2 417.224 265.439 416.736 265.452Z" fill="white"/>
</g>
<g opacity="0.8">
<path d="M286.852 265.452H277.848C277.719 265.456 277.59 265.424 277.471 265.359C277.352 265.295 277.245 265.198 277.158 265.077C277.071 264.956 277.005 264.813 276.966 264.657C276.926 264.501 276.914 264.336 276.929 264.174L277.342 258.068C277.371 257.721 277.5 257.4 277.703 257.165C277.907 256.929 278.172 256.796 278.448 256.79H287.452C287.581 256.786 287.71 256.818 287.829 256.882C287.948 256.947 288.055 257.043 288.142 257.164C288.229 257.286 288.295 257.429 288.334 257.585C288.374 257.741 288.386 257.905 288.371 258.068L287.945 264.174C287.921 264.52 287.797 264.843 287.595 265.08C287.393 265.316 287.128 265.449 286.852 265.452Z" fill="white"/>
<path d="M291.022 263.787C290.892 263.79 290.762 263.758 290.643 263.694C290.523 263.629 290.416 263.534 290.328 263.413C290.239 263.292 290.173 263.149 290.132 262.993C290.09 262.837 290.076 262.672 290.089 262.508L290.289 259.716C290.315 259.368 290.443 259.045 290.647 258.809C290.851 258.573 291.118 258.441 291.395 258.438C291.524 258.434 291.653 258.466 291.772 258.531C291.891 258.595 291.998 258.691 292.085 258.813C292.172 258.934 292.237 259.077 292.277 259.233C292.316 259.389 292.329 259.554 292.314 259.716L292.127 262.508C292.098 262.855 291.97 263.176 291.766 263.412C291.562 263.647 291.298 263.781 291.022 263.787Z" fill="white"/>
</g>
<path d="M374.142 406.337C392.066 384.67 393.854 350.296 378.134 329.561C362.415 308.826 335.142 309.582 317.218 331.249C299.294 352.917 297.506 387.291 313.225 408.026C328.944 428.761 356.218 428.005 374.142 406.337Z" fill="white"/>
<path d="M345.833 366.725C334.538 366.725 324.988 372.158 324.175 383.949L323.269 397.052H364.202L365.108 383.949C365.92 372.158 357.142 366.725 345.833 366.725Z" fill="#407BFF"/>
<path d="M346.206 361.326C351.454 361.326 353.879 355.96 354.332 349.333C354.784 342.706 353.119 337.341 347.871 337.341C342.623 337.341 340.212 342.723 339.746 349.333C339.28 355.944 340.958 361.326 346.206 361.326Z" fill="#407BFF"/>
<path d="M386.379 444.097C383.596 444.097 381.238 445.443 381.051 448.353L380.825 451.599H390.935L391.161 448.353C391.348 445.443 389.177 444.097 386.379 444.097Z" fill="#407BFF"/>
<path d="M386.473 442.768C387.805 442.768 388.364 441.44 388.484 439.808C388.604 438.177 388.178 436.848 386.886 436.848C385.594 436.848 384.994 438.177 384.874 439.808C384.754 441.44 385.181 442.768 386.473 442.768Z" fill="#407BFF"/>
<path d="M355.264 519.148H315.304C314.22 519.173 313.145 518.906 312.15 518.365C311.154 517.824 310.261 517.022 309.53 516.012C308.8 515.001 308.247 513.806 307.911 512.505C307.574 511.204 307.461 509.828 307.578 508.467C307.815 505.575 308.882 502.892 310.578 500.925C312.273 498.957 314.48 497.841 316.782 497.787H356.742C357.825 497.765 358.9 498.033 359.894 498.575C360.889 499.117 361.781 499.919 362.511 500.929C363.242 501.939 363.794 503.133 364.131 504.433C364.468 505.732 364.583 507.107 364.468 508.467C364.234 511.361 363.168 514.046 361.472 516.014C359.776 517.982 357.567 519.097 355.264 519.148Z" fill="#407BFF"/>
<path d="M350.429 638.267H307.658C306.511 638.306 305.37 638.033 304.314 637.466C303.258 636.899 302.311 636.051 301.537 634.98C300.764 633.909 300.182 632.64 299.831 631.26C299.481 629.88 299.37 628.42 299.506 626.981L302.237 587.589C302.481 584.533 303.605 581.696 305.394 579.616C307.184 577.536 309.515 576.357 311.947 576.302H354.731C355.875 576.277 357.011 576.56 358.062 577.132C359.113 577.704 360.055 578.552 360.827 579.619C361.598 580.687 362.18 581.95 362.535 583.324C362.889 584.698 363.008 586.152 362.883 587.589L360.152 626.981C359.902 630.037 358.776 632.872 356.984 634.951C355.193 637.03 352.861 638.21 350.429 638.267Z" fill="#407BFF"/>
<g opacity="0.6">
<path d="M337.242 597.529C337.312 596.67 337.237 595.801 337.021 594.981C336.805 594.161 336.454 593.408 335.991 592.772C335.527 592.136 334.962 591.631 334.333 591.292C333.704 590.952 333.025 590.785 332.34 590.801C330.883 590.828 329.484 591.526 328.407 592.766C327.33 594.005 326.649 595.7 326.493 597.529C326.408 598.553 326.528 599.586 326.842 600.536C327.157 601.485 327.655 602.319 328.291 602.962L327.359 616.536C327.313 617.05 327.355 617.571 327.481 618.063C327.608 618.555 327.816 619.007 328.093 619.389C328.369 619.771 328.706 620.075 329.083 620.279C329.459 620.483 329.866 620.583 330.276 620.573C331.144 620.549 331.975 620.126 332.613 619.383C333.251 618.639 333.651 617.627 333.739 616.536L334.685 602.962C335.398 602.346 335.997 601.541 336.439 600.602C336.88 599.664 337.154 598.615 337.242 597.529Z" fill="white"/>
</g>
<path d="M355.104 584.51H349.59L350.922 565.016C351.154 562.311 350.929 559.573 350.259 556.986C349.59 554.399 348.493 552.022 347.041 550.011C345.588 548 343.814 546.403 341.835 545.324C339.856 544.246 337.719 543.711 335.564 543.756C330.984 543.869 326.595 546.093 323.224 550.009C319.853 553.925 317.733 559.263 317.262 565.016L315.93 584.51H310.416L311.748 565.016C312.368 557.381 315.18 550.296 319.654 545.099C324.127 539.903 329.953 536.954 336.03 536.809C338.89 536.747 341.728 537.455 344.355 538.885C346.982 540.314 349.339 542.433 351.267 545.101C353.196 547.769 354.653 550.925 355.542 554.358C356.431 557.792 356.731 561.425 356.423 565.016L355.104 584.51Z" fill="#407BFF"/>
<path d="M387.059 473.953L387.232 472.052C387.268 471.612 387.229 471.166 387.119 470.746C387.009 470.325 386.83 469.939 386.594 469.612C386.358 469.285 386.069 469.025 385.748 468.848C385.426 468.671 385.078 468.582 384.728 468.587C383.982 468.607 383.267 468.969 382.717 469.607C382.168 470.245 381.822 471.115 381.744 472.052L381.611 473.919C381.313 473.93 381.028 474.077 380.809 474.334C380.591 474.591 380.455 474.94 380.426 475.315L380.079 480.361C380.062 480.537 380.075 480.716 380.118 480.886C380.16 481.055 380.232 481.211 380.327 481.342C380.422 481.473 380.538 481.577 380.668 481.645C380.797 481.714 380.938 481.747 381.078 481.74H386.566C386.863 481.734 387.148 481.59 387.367 481.336C387.585 481.081 387.722 480.735 387.752 480.361L388.098 475.315C388.109 475.137 388.091 474.957 388.043 474.789C387.995 474.621 387.92 474.467 387.822 474.338C387.723 474.209 387.605 474.108 387.473 474.042C387.342 473.975 387.2 473.945 387.059 473.953ZM384.568 469.479C384.832 469.475 385.094 469.541 385.337 469.674C385.579 469.806 385.797 470.002 385.975 470.248C386.154 470.494 386.289 470.785 386.373 471.102C386.456 471.418 386.486 471.754 386.459 472.086L386.326 473.953H382.197L382.33 472.086C382.388 471.382 382.648 470.729 383.06 470.249C383.471 469.769 384.008 469.495 384.568 469.479Z" fill="#407BFF"/>
<path d="M304.448 475.954L302.53 475.45C302.477 475.436 302.426 475.407 302.383 475.365C302.34 475.323 302.305 475.269 302.28 475.208C302.256 475.146 302.243 475.078 302.243 475.01C302.242 474.941 302.254 474.873 302.277 474.81L303.076 472.422C303.11 472.319 303.113 472.204 303.085 472.098C303.058 471.992 303.002 471.902 302.927 471.844C302.852 471.785 302.763 471.762 302.675 471.779C302.588 471.795 302.508 471.85 302.45 471.934L300.998 473.818C300.963 473.874 300.919 473.919 300.868 473.95C300.817 473.982 300.762 473.998 300.705 473.998C300.649 473.998 300.593 473.982 300.542 473.95C300.492 473.919 300.447 473.874 300.412 473.818L299.227 471.934C298.974 471.531 298.428 471.934 298.521 472.422L298.987 474.81C299.001 474.88 299.003 474.953 298.993 475.024C298.983 475.094 298.962 475.162 298.931 475.222C298.9 475.282 298.859 475.333 298.811 475.372C298.764 475.411 298.71 475.438 298.654 475.45L296.669 475.954C296.243 476.055 296.19 476.812 296.603 476.913L298.521 477.418C298.574 477.43 298.625 477.459 298.668 477.501C298.711 477.543 298.746 477.598 298.77 477.66C298.793 477.722 298.804 477.791 298.803 477.86C298.801 477.929 298.787 477.996 298.761 478.057L297.988 480.462C297.955 480.565 297.952 480.68 297.979 480.786C298.006 480.892 298.063 480.982 298.138 481.04C298.213 481.099 298.302 481.122 298.389 481.105C298.476 481.089 298.556 481.034 298.614 480.95L300.066 479.066C300.103 479.015 300.149 478.974 300.199 478.947C300.25 478.919 300.304 478.904 300.359 478.904C300.414 478.904 300.468 478.919 300.519 478.947C300.569 478.974 300.615 479.015 300.652 479.066L301.838 480.95C302.091 481.353 302.637 480.95 302.53 480.462L302.064 478.074C302.044 477.931 302.07 477.784 302.134 477.665C302.199 477.546 302.298 477.463 302.41 477.434L304.395 476.93C304.808 476.812 304.861 476.055 304.448 475.954Z" fill="#263238"/>
<path d="M317.049 475.954L315.131 475.45C315.077 475.436 315.027 475.407 314.984 475.365C314.941 475.323 314.906 475.269 314.881 475.208C314.857 475.146 314.844 475.078 314.843 475.01C314.843 474.941 314.854 474.873 314.878 474.81L315.677 472.422C315.71 472.319 315.713 472.204 315.686 472.098C315.659 471.992 315.602 471.902 315.527 471.844C315.452 471.785 315.363 471.762 315.276 471.779C315.189 471.795 315.109 471.85 315.051 471.934L313.599 473.818C313.564 473.874 313.52 473.919 313.469 473.95C313.418 473.982 313.362 473.998 313.306 473.998C313.25 473.998 313.194 473.982 313.143 473.95C313.092 473.919 313.048 473.874 313.013 473.818L311.827 471.934C311.574 471.531 311.028 471.934 311.135 472.422L311.601 474.81C311.613 474.881 311.613 474.954 311.601 475.025C311.59 475.096 311.568 475.163 311.535 475.223C311.503 475.283 311.461 475.333 311.413 475.372C311.365 475.411 311.311 475.438 311.255 475.45L309.27 475.954C308.844 476.055 308.791 476.812 309.203 476.913L311.121 477.418C311.175 477.431 311.225 477.46 311.268 477.502C311.312 477.544 311.347 477.598 311.371 477.659C311.396 477.721 311.409 477.789 311.409 477.858C311.41 477.926 311.398 477.995 311.375 478.057L310.575 480.445C310.542 480.548 310.539 480.663 310.566 480.769C310.594 480.875 310.65 480.965 310.725 481.023C310.8 481.082 310.889 481.105 310.976 481.088C311.064 481.072 311.143 481.017 311.201 480.933L312.653 479.049C312.691 478.998 312.736 478.958 312.786 478.93C312.837 478.902 312.891 478.888 312.946 478.888C313.001 478.888 313.056 478.902 313.106 478.93C313.157 478.958 313.202 478.998 313.239 479.049L314.425 480.933C314.678 481.337 315.224 480.933 315.131 480.445L314.665 478.057C314.653 477.987 314.652 477.915 314.663 477.845C314.673 477.775 314.695 477.709 314.726 477.649C314.757 477.59 314.796 477.539 314.843 477.499C314.89 477.459 314.942 477.432 314.998 477.418L316.982 476.913C317.409 476.812 317.462 476.055 317.049 475.954Z" fill="#263238"/>
<path d="M329.65 475.954L327.745 475.45C327.69 475.439 327.638 475.412 327.593 475.371C327.548 475.33 327.512 475.275 327.487 475.213C327.462 475.15 327.45 475.081 327.451 475.011C327.451 474.941 327.466 474.872 327.492 474.81L328.291 472.422C328.342 472.315 328.358 472.187 328.334 472.065C328.31 471.944 328.249 471.839 328.164 471.774C328.08 471.71 327.978 471.69 327.882 471.72C327.786 471.75 327.703 471.827 327.652 471.934L326.213 473.818C326.177 473.874 326.131 473.92 326.079 473.951C326.027 473.982 325.971 473.998 325.913 473.998C325.856 473.998 325.799 473.982 325.747 473.951C325.696 473.92 325.65 473.874 325.614 473.818L324.428 471.934C324.175 471.531 323.629 471.934 323.736 472.422L324.202 474.81C324.213 474.88 324.214 474.952 324.204 475.022C324.193 475.092 324.172 475.158 324.141 475.218C324.11 475.277 324.07 475.328 324.023 475.368C323.976 475.408 323.924 475.436 323.869 475.45L321.884 475.954C321.458 476.055 321.405 476.812 321.817 476.913L323.722 477.418C323.776 477.431 323.826 477.46 323.869 477.502C323.912 477.544 323.948 477.598 323.972 477.659C323.996 477.721 324.009 477.789 324.01 477.858C324.01 477.926 323.999 477.994 323.975 478.057L323.176 480.445C323.125 480.552 323.109 480.681 323.133 480.802C323.157 480.923 323.218 481.028 323.303 481.093C323.387 481.157 323.489 481.177 323.585 481.147C323.681 481.117 323.764 481.04 323.815 480.933L325.254 479.049C325.291 478.998 325.337 478.957 325.387 478.93C325.438 478.902 325.492 478.888 325.547 478.888C325.602 478.888 325.657 478.902 325.707 478.93C325.757 478.957 325.803 478.998 325.84 479.049L327.039 480.933C327.292 481.337 327.838 480.933 327.732 480.445L327.265 478.057C327.245 477.917 327.269 477.772 327.331 477.653C327.393 477.534 327.489 477.45 327.598 477.418L329.583 476.913C329.956 476.812 330.063 476.055 329.65 475.954Z" fill="#263238"/>
<path d="M342.264 475.954L340.346 475.45C340.292 475.436 340.242 475.407 340.199 475.365C340.155 475.323 340.12 475.269 340.096 475.208C340.072 475.146 340.059 475.078 340.058 475.01C340.057 474.941 340.069 474.873 340.092 474.81L340.892 472.422C340.925 472.319 340.928 472.204 340.901 472.098C340.873 471.992 340.817 471.902 340.742 471.844C340.667 471.785 340.578 471.762 340.491 471.779C340.404 471.795 340.324 471.85 340.266 471.934L338.814 473.818C338.779 473.874 338.734 473.919 338.684 473.95C338.633 473.982 338.577 473.998 338.521 473.998C338.464 473.998 338.409 473.982 338.358 473.95C338.307 473.919 338.263 473.874 338.228 473.818L337.042 471.934C336.789 471.531 336.243 471.934 336.336 472.422L336.802 474.81C336.816 474.88 336.818 474.953 336.809 475.024C336.799 475.094 336.778 475.162 336.747 475.222C336.715 475.282 336.675 475.333 336.627 475.372C336.579 475.411 336.526 475.438 336.469 475.45L334.485 475.954C334.059 476.055 334.005 476.812 334.485 476.913L336.403 477.418C336.457 477.43 336.507 477.459 336.55 477.501C336.593 477.543 336.628 477.598 336.652 477.66C336.675 477.722 336.686 477.791 336.685 477.86C336.683 477.929 336.669 477.996 336.643 478.057L335.857 480.445C335.824 480.548 335.82 480.663 335.848 480.769C335.875 480.875 335.931 480.965 336.006 481.023C336.081 481.082 336.17 481.105 336.258 481.088C336.345 481.072 336.425 481.017 336.483 480.933L337.935 479.049C337.972 478.998 338.017 478.958 338.068 478.93C338.118 478.902 338.173 478.888 338.228 478.888C338.283 478.888 338.337 478.902 338.388 478.93C338.438 478.958 338.483 478.998 338.521 479.049L339.706 480.933C339.959 481.337 340.505 480.933 340.399 480.445L339.933 478.057C339.913 477.914 339.938 477.768 340.003 477.648C340.068 477.529 340.167 477.446 340.279 477.418L342.264 476.913C342.623 476.812 342.677 476.055 342.264 475.954Z" fill="#263238"/>
<path d="M354.864 475.954L352.946 475.45C352.893 475.436 352.843 475.407 352.799 475.365C352.756 475.323 352.721 475.269 352.697 475.208C352.672 475.146 352.659 475.078 352.659 475.01C352.658 474.941 352.67 474.873 352.693 474.81L353.492 472.422C353.526 472.319 353.529 472.204 353.502 472.098C353.474 471.992 353.418 471.902 353.343 471.844C353.268 471.785 353.179 471.762 353.091 471.779C353.004 471.795 352.925 471.85 352.866 471.934L351.414 473.818C351.38 473.874 351.335 473.919 351.284 473.95C351.234 473.982 351.178 473.998 351.121 473.998C351.065 473.998 351.009 473.982 350.959 473.95C350.908 473.919 350.863 473.874 350.828 473.818L349.643 471.934C349.39 471.531 348.844 471.934 348.95 472.422L349.416 474.81C349.428 474.881 349.428 474.954 349.417 475.025C349.406 475.096 349.383 475.163 349.351 475.223C349.318 475.283 349.277 475.333 349.229 475.372C349.181 475.411 349.127 475.438 349.07 475.45L347.085 475.954C346.659 476.055 346.606 476.812 347.019 476.913L348.937 477.418C348.99 477.431 349.041 477.46 349.084 477.502C349.127 477.544 349.162 477.598 349.187 477.659C349.211 477.721 349.224 477.789 349.225 477.858C349.225 477.926 349.213 477.995 349.19 478.057L348.391 480.445C348.358 480.548 348.354 480.663 348.382 480.769C348.409 480.875 348.465 480.965 348.54 481.023C348.616 481.082 348.705 481.105 348.792 481.088C348.879 481.072 348.959 481.017 349.017 480.933L350.469 479.049C350.506 478.998 350.552 478.958 350.602 478.93C350.652 478.902 350.707 478.888 350.762 478.888C350.817 478.888 350.871 478.902 350.922 478.93C350.972 478.958 351.017 478.998 351.055 479.049L352.24 480.933C352.493 481.337 353.04 480.933 352.946 480.445L352.48 478.057C352.468 477.987 352.468 477.915 352.478 477.845C352.489 477.775 352.51 477.709 352.541 477.649C352.572 477.59 352.612 477.539 352.659 477.499C352.705 477.459 352.758 477.432 352.813 477.418L354.798 476.913C355.264 476.812 355.264 476.055 354.864 475.954Z" fill="#263238"/>
<path d="M367.465 475.954L365.547 475.45C365.493 475.437 365.443 475.408 365.4 475.366C365.356 475.324 365.322 475.269 365.298 475.207C365.275 475.145 365.264 475.076 365.265 475.007C365.267 474.939 365.281 474.871 365.307 474.811L366.106 472.422C366.132 472.369 366.149 472.31 366.156 472.249C366.163 472.188 366.161 472.125 366.149 472.065C366.138 472.005 366.117 471.948 366.088 471.899C366.058 471.849 366.022 471.806 365.98 471.774C365.938 471.742 365.891 471.721 365.843 471.712C365.794 471.703 365.745 471.705 365.697 471.72C365.65 471.735 365.605 471.762 365.565 471.798C365.526 471.835 365.492 471.881 365.467 471.934L364.029 473.818C363.992 473.874 363.947 473.92 363.895 473.951C363.843 473.982 363.786 473.998 363.729 473.998C363.671 473.998 363.615 473.982 363.563 473.951C363.511 473.92 363.465 473.874 363.429 473.818L362.244 471.934C361.991 471.531 361.444 471.934 361.551 472.422L362.017 474.811C362.029 474.88 362.03 474.952 362.019 475.022C362.009 475.092 361.987 475.158 361.956 475.218C361.925 475.277 361.885 475.328 361.839 475.368C361.792 475.408 361.739 475.436 361.684 475.45L359.7 475.954C359.273 476.055 359.22 476.812 359.633 476.913L361.538 477.418C361.591 477.431 361.641 477.46 361.685 477.502C361.728 477.544 361.763 477.598 361.787 477.659C361.812 477.721 361.825 477.789 361.825 477.858C361.826 477.926 361.814 477.995 361.791 478.057L360.992 480.445C360.94 480.552 360.925 480.681 360.949 480.802C360.972 480.924 361.033 481.028 361.118 481.093C361.203 481.157 361.305 481.177 361.401 481.147C361.497 481.117 361.58 481.04 361.631 480.933L363.069 479.049C363.107 478.998 363.152 478.958 363.203 478.93C363.253 478.902 363.308 478.888 363.363 478.888C363.418 478.888 363.472 478.902 363.522 478.93C363.573 478.958 363.618 478.998 363.656 479.049L364.841 480.933C364.903 481.021 364.987 481.08 365.079 481.1C365.171 481.12 365.266 481.1 365.348 481.044C365.43 480.987 365.494 480.897 365.53 480.788C365.566 480.68 365.572 480.559 365.547 480.445L365.081 478.057C365.061 477.917 365.084 477.772 365.146 477.653C365.208 477.534 365.304 477.45 365.414 477.418L367.398 476.913C367.825 476.812 367.878 476.055 367.465 475.954Z" fill="#263238"/>
<path d="M337.082 441.12H313.426C312.7 441.136 312.004 441.487 311.469 442.106C310.934 442.726 310.597 443.572 310.522 444.484C310.484 444.913 310.519 445.348 310.625 445.758C310.731 446.169 310.905 446.546 311.136 446.865C311.367 447.184 311.649 447.436 311.964 447.606C312.278 447.775 312.618 447.858 312.96 447.848H336.616C337.342 447.832 338.038 447.481 338.573 446.862C339.108 446.242 339.445 445.396 339.52 444.484C339.556 444.055 339.519 443.622 339.412 443.213C339.306 442.803 339.131 442.427 338.901 442.109C338.67 441.791 338.389 441.538 338.076 441.368C337.762 441.197 337.424 441.113 337.082 441.12Z" fill="#263238"/>
<path d="M361.112 441.12H347.379C346.654 441.136 345.959 441.488 345.427 442.108C344.894 442.728 344.56 443.573 344.488 444.484C344.45 444.912 344.485 445.345 344.59 445.754C344.695 446.164 344.868 446.54 345.098 446.859C345.327 447.177 345.608 447.43 345.92 447.6C346.233 447.771 346.572 447.855 346.912 447.848H360.592C361.317 447.832 362.011 447.48 362.544 446.86C363.077 446.24 363.411 445.395 363.482 444.484C363.52 444.062 363.486 443.635 363.385 443.23C363.283 442.825 363.114 442.452 362.891 442.135C362.667 441.817 362.393 441.563 362.087 441.388C361.78 441.214 361.448 441.122 361.112 441.12Z" fill="#263238"/>
<path d="M379.24 593.593C370.879 597.615 363.33 603.935 357.142 612.095C353.385 608.411 348.905 606.086 344.182 605.367L343.556 605.25L343.289 609.219L343.636 609.387C348.815 611.796 353.196 616.349 356.063 622.305L356.516 623.247L357.009 622.238C362.525 611.118 370.31 602.077 379.546 596.066L379.853 595.864L380.026 593.24L379.24 593.593Z" fill="#263238"/>
<path opacity="0.2" d="M260.212 262.424C258.515 266.167 257.471 270.325 257.149 274.619L237.315 560.929H298.694L311.028 501.235L306.966 441.524L319.3 381.83L315.304 322.135L327.638 262.424H260.212Z" fill="black"/>
<path d="M309.909 305.315L322.243 245.604H167.025L154.704 305.315L158.754 365.01L146.433 424.704L150.482 484.415L138.161 544.109H293.366L305.7 484.415L301.637 424.704L313.972 365.01L309.909 305.315Z" fill="#407BFF"/>
<path opacity="0.7" d="M309.909 305.315L322.243 245.604H167.025L154.704 305.315L158.754 365.01L146.433 424.704L150.482 484.415L138.161 544.109H293.366L305.7 484.415L301.637 424.704L313.972 365.01L309.909 305.315Z" fill="white"/>
<path opacity="0.5" d="M309.909 305.315H154.705L167.026 245.604H322.244L309.909 305.315Z" fill="white"/>
<path opacity="0.5" d="M301.638 424.704H146.433L158.754 365.01H313.972L301.638 424.704Z" fill="white"/>
<path opacity="0.5" d="M293.366 544.109H138.148L150.482 484.415H305.7L293.366 544.109Z" fill="white"/>
<path opacity="0.2" d="M289.144 330.259C287.551 330.841 285.899 331.124 284.242 331.1C281.994 331.226 279.757 330.648 277.728 329.418C277.361 329.144 276.943 328.999 276.516 328.998C276.125 329.005 275.741 329.132 275.397 329.368H275.317C274.722 329.79 274.087 330.112 273.426 330.327C271.935 330.824 270.399 331.067 268.857 331.05C268.391 331.05 267.938 331.05 267.525 331.05C266.329 330.953 265.145 330.688 263.995 330.259C263.826 330.196 263.652 330.156 263.476 330.142C263.183 330.112 262.888 330.158 262.61 330.279C262.332 330.399 262.077 330.591 261.861 330.843C261.644 331.094 261.471 331.399 261.353 331.738C261.234 332.078 261.172 332.445 261.172 332.816V334.633H200.752C199.642 334.633 198.543 334.909 197.517 335.446C196.492 335.983 195.56 336.77 194.776 337.762C193.991 338.754 193.37 339.932 192.946 341.227C192.523 342.523 192.305 343.911 192.307 345.313V356.061C192.304 357.464 192.519 358.855 192.942 360.152C193.365 361.45 193.987 362.63 194.771 363.624C195.556 364.617 196.488 365.406 197.514 365.944C198.54 366.482 199.641 366.759 200.752 366.759H269.39H269.843C270.575 367.533 271.348 368.306 272.174 369.097C273 369.887 274.172 370.981 275.251 371.956C275.619 372.293 276.062 372.474 276.516 372.474C276.971 372.474 277.413 372.293 277.782 371.956C286.413 364.051 291.954 358.601 291.954 343.631V332.866C291.958 332.436 291.881 332.01 291.729 331.625C291.577 331.24 291.354 330.906 291.079 330.651C290.805 330.396 290.486 330.228 290.149 330.16C289.812 330.091 289.468 330.126 289.144 330.259Z" fill="black"/>
<path d="M268.071 328.729H199.447C194.775 328.729 190.988 333.511 190.988 339.409V350.157C190.988 356.056 194.775 360.838 199.447 360.838H268.071C272.743 360.838 276.529 356.056 276.529 350.157V339.409C276.529 333.511 272.743 328.729 268.071 328.729Z" fill="#407BFF"/>
<path d="M282.923 325.18C280.676 325.301 278.439 324.724 276.41 323.498C276.049 323.218 275.634 323.07 275.211 323.07C274.788 323.07 274.373 323.218 274.012 323.498C271.979 324.726 269.737 325.303 267.485 325.18C265.828 325.202 264.176 324.919 262.583 324.339C262.263 324.202 261.921 324.165 261.586 324.229C261.251 324.292 260.933 324.456 260.658 324.706C260.384 324.956 260.16 325.285 260.006 325.666C259.852 326.046 259.772 326.468 259.773 326.895V337.66C259.773 352.647 265.314 358.096 273.945 366.002C274.314 366.338 274.756 366.52 275.211 366.52C275.665 366.52 276.108 366.338 276.476 366.002C285.108 358.096 290.649 352.647 290.649 337.66V326.895C290.647 326.467 290.565 326.046 290.41 325.665C290.254 325.285 290.029 324.956 289.754 324.707C289.478 324.457 289.16 324.294 288.824 324.23C288.489 324.166 288.146 324.203 287.825 324.339C286.232 324.92 284.581 325.203 282.923 325.18Z" fill="#407BFF"/>
<path opacity="0.3" d="M282.923 325.18C280.676 325.301 278.439 324.724 276.41 323.498C276.049 323.218 275.634 323.07 275.211 323.07C274.788 323.07 274.373 323.218 274.012 323.498C271.979 324.726 269.737 325.303 267.485 325.18C265.828 325.202 264.176 324.919 262.583 324.339C262.263 324.202 261.921 324.165 261.586 324.229C261.251 324.292 260.933 324.456 260.658 324.706C260.384 324.956 260.16 325.285 260.006 325.666C259.852 326.046 259.772 326.468 259.773 326.895V337.66C259.773 352.647 265.314 358.096 273.945 366.002C274.314 366.338 274.756 366.52 275.211 366.52C275.665 366.52 276.108 366.338 276.476 366.002C285.108 358.096 290.649 352.647 290.649 337.66V326.895C290.647 326.467 290.565 326.046 290.41 325.665C290.254 325.285 290.029 324.956 289.754 324.707C289.478 324.457 289.16 324.294 288.824 324.23C288.489 324.166 288.146 324.203 287.825 324.339C286.232 324.92 284.581 325.203 282.923 325.18Z" fill="white"/>
<path opacity="0.2" d="M274.012 323.464C271.979 324.692 269.737 325.27 267.485 325.146C265.828 325.167 264.176 324.884 262.583 324.305C262.263 324.169 261.921 324.131 261.586 324.195C261.251 324.259 260.933 324.422 260.658 324.672C260.384 324.922 260.16 325.251 260.006 325.632C259.852 326.013 259.772 326.434 259.773 326.862V337.627C259.773 352.613 265.314 358.063 273.945 365.968C274.332 366.322 274.8 366.506 275.277 366.49V323.027C274.831 323.016 274.392 323.168 274.012 323.464Z" fill="white"/>
<path d="M287.585 334.734C282.393 337.302 277.768 341.416 274.105 346.726C271.551 344.348 268.556 342.837 265.407 342.336H264.994V344.91L265.221 345.011C268.723 346.607 271.741 349.548 273.852 353.421L274.185 354.026L274.465 353.37C277.527 346.184 282.19 340.289 287.878 336.416L288.078 336.298V334.616L287.585 334.734Z" fill="#263238"/>
<path d="M319.5 262.408H313.612C312.855 262.425 312.103 262.239 311.407 261.861C310.711 261.483 310.087 260.922 309.577 260.215C309.066 259.508 308.681 258.672 308.447 257.762C308.212 256.853 308.134 255.89 308.218 254.939L308.737 247.505C308.897 245.483 309.639 243.606 310.822 242.229C312.006 240.852 313.549 240.072 315.158 240.037H321.045C321.803 240.017 322.557 240.201 323.254 240.578C323.952 240.955 324.577 241.516 325.089 242.223C325.601 242.93 325.988 243.767 326.223 244.678C326.458 245.589 326.536 246.553 326.453 247.505L325.933 254.939C325.754 256.955 325.004 258.82 323.822 260.192C322.64 261.565 321.105 262.351 319.5 262.408Z" fill="#407BFF"/>
<path d="M321.951 247.488L320.672 245.705L317.448 249.439L314.758 245.705L313.226 247.488L315.93 251.222L312.72 254.956L313.999 256.722L317.209 252.988L319.913 256.722L321.431 254.956L318.727 251.222L321.951 247.488Z" fill="white"/>
<path d="M187.925 326.542C191.335 331.235 194.585 336.096 197.822 340.991C201.058 345.885 204.189 350.881 207.305 355.893C207.439 356.112 207.385 356.028 207.412 356.095C207.439 356.162 207.412 356.179 207.412 356.196C207.435 356.258 207.467 356.315 207.505 356.364C207.619 356.568 207.763 356.741 207.93 356.874C208.097 357.007 208.283 357.096 208.478 357.138C208.628 357.163 208.78 357.163 208.93 357.138C209.01 357.146 209.09 357.146 209.17 357.138H209.29C209.357 357.138 209.29 357.138 209.503 357.037L212.833 354.749C217.309 351.755 221.824 348.829 226.486 346.205L230.389 352.31C226.633 356.667 222.717 362.133 218.761 366.136L215.777 369.097C215.592 369.288 215.396 369.462 215.191 369.618C214.965 369.821 214.729 370.007 214.485 370.173C214.003 370.524 213.505 370.839 212.993 371.115C211.961 371.663 210.878 372.041 209.77 372.242C207.529 372.658 205.241 372.369 203.11 371.401C202.025 370.915 200.996 370.253 200.046 369.433C199.567 369.03 199.114 368.559 198.714 368.104C198.488 367.869 198.301 367.6 198.088 367.347L197.555 366.675C194.025 362.1 190.549 357.491 187.139 352.798C183.729 348.105 180.359 343.379 177.136 338.468L187.925 326.542Z" fill="#B55B52"/>
<path d="M224.728 349.905L227.832 337.307L236.01 342.454C236.01 342.454 234.811 351.638 228.871 353.236L224.728 349.905Z" fill="#B55B52"/>
<path d="M231.095 333.825L238.474 336.382L235.997 342.454L227.818 337.307L231.095 333.825Z" fill="#B55B52"/>
<path d="M144.928 329.973C144.049 335.322 142.957 340.621 141.824 345.902C140.692 351.183 139.453 356.414 138.161 361.646L137.682 363.613L137.442 364.589C137.41 364.729 137.365 364.865 137.309 364.993C137.157 365.534 137.072 366.101 137.056 366.675C137.028 367.897 137.297 369.1 137.828 370.123C138.09 370.571 138.38 370.993 138.694 371.384L139.8 372.915L141.984 375.993C143.409 378.079 144.848 380.164 146.207 382.351L141.558 389.079C139.64 387.7 137.802 386.203 135.964 384.723L133.233 382.435L131.901 381.274C131.448 380.871 131.075 380.602 130.342 379.845C127.736 377.04 125.938 373.226 125.228 368.996C124.87 366.84 124.785 364.626 124.975 362.436C124.975 361.898 125.108 361.292 125.174 360.754L125.321 359.745L125.601 357.726C126.346 352.327 127.146 346.945 128.038 341.596C128.931 336.247 129.89 330.915 131.022 325.651L144.928 329.973Z" fill="#B55B52"/>
<path d="M141.651 381.813L147.139 378.264L149.563 390.038C149.563 390.038 145.154 392.174 141.744 389.432L141.651 381.813Z" fill="#B55B52"/>
<path d="M154.731 374.479L154.984 385.311L148.844 390.374L146.713 378.482L154.731 374.479Z" fill="#B55B52"/>
<path d="M172.7 274.367C172.833 275.191 173.299 275.779 173.726 275.679C174.152 275.578 174.405 274.804 174.272 273.997C174.139 273.189 173.672 272.584 173.246 272.685C172.82 272.785 172.567 273.576 172.7 274.367Z" fill="#263238"/>
<path d="M173.233 275.796C174.432 278.142 175.88 280.27 177.535 282.121C177.15 282.645 176.678 283.057 176.154 283.327C175.629 283.597 175.064 283.719 174.498 283.685L173.233 275.796Z" fill="#A02724"/>
<path d="M169.543 270.363C169.467 270.362 169.392 270.333 169.328 270.28C169.264 270.226 169.213 270.151 169.182 270.062C169.151 269.973 169.141 269.875 169.153 269.78C169.165 269.684 169.199 269.595 169.25 269.522C169.667 268.927 170.19 268.464 170.776 268.171C171.361 267.879 171.993 267.766 172.62 267.84C172.672 267.853 172.721 267.877 172.765 267.914C172.809 267.95 172.847 267.996 172.877 268.051C172.906 268.106 172.927 268.167 172.938 268.232C172.949 268.297 172.949 268.364 172.94 268.429C172.932 268.494 172.914 268.555 172.886 268.611C172.859 268.666 172.823 268.714 172.781 268.752C172.739 268.79 172.691 268.816 172.64 268.83C172.59 268.844 172.538 268.845 172.487 268.833C171.99 268.773 171.489 268.863 171.026 269.097C170.562 269.332 170.15 269.702 169.823 270.178C169.752 270.283 169.652 270.349 169.543 270.363Z" fill="#263238"/>
<path d="M153.493 286.09C154.958 293.81 156.436 307.956 151.188 313.086C151.188 313.086 153.24 320.924 167.172 320.924C182.49 320.924 174.498 315.878 174.498 315.878C166.133 313.826 166.346 304.659 167.838 298.655L153.493 286.09Z" fill="#B55B52"/>
<path d="M149.55 314.516C148.644 312.38 147.632 309.924 149.71 309.15C152.001 308.309 166.693 306.745 171.022 308.326C169.69 311.303 171.941 315.054 171.941 315.054L149.55 314.516Z" fill="#263238"/>
<path d="M161.724 675.439H171.328L172.287 651.017H162.67L161.724 675.439Z" fill="#B55B52"/>
<path d="M100.732 672.075L110.469 672.731L116.383 648.662L106.646 648.006L100.732 672.075Z" fill="#B55B52"/>
<path d="M110.176 671.756L100.999 669.25C100.838 669.203 100.669 669.228 100.521 669.32C100.374 669.412 100.255 669.565 100.186 669.754L97.0025 678.484C96.9242 678.696 96.8853 678.928 96.8889 679.161C96.8926 679.395 96.9386 679.625 97.0235 679.833C97.1084 680.041 97.2299 680.221 97.3786 680.361C97.5274 680.5 97.6995 680.595 97.8816 680.637C101.092 681.444 102.69 681.629 106.726 682.739C109.204 683.412 114.811 685.145 118.235 686.103C121.658 687.062 122.843 682.891 121.511 682.117C115.517 678.669 113.013 675.624 111.388 672.782C111.096 672.265 110.665 671.9 110.176 671.756Z" fill="#263238"/>
<path d="M170.822 674.212H161.698C161.533 674.214 161.373 674.287 161.245 674.418C161.117 674.549 161.028 674.731 160.992 674.935L159.34 684.304C159.297 684.53 159.296 684.767 159.337 684.994C159.378 685.221 159.459 685.434 159.575 685.616C159.69 685.797 159.837 685.943 160.004 686.043C160.171 686.142 160.354 686.191 160.539 686.187C163.829 686.187 168.531 685.868 172.727 685.868C177.562 685.868 181.731 686.204 187.379 686.204C190.802 686.204 191.761 681.831 190.322 681.427C183.782 679.628 178.454 679.426 172.807 675.036C172.216 674.539 171.53 674.254 170.822 674.212Z" fill="#263238"/>
<path d="M133.779 316.652C126.533 321.008 124.562 347.416 124.562 347.416L142.504 357.878C145.536 351.418 147.189 344.075 147.299 336.567C147.658 322.926 141.198 312.262 133.779 316.652Z" fill="#263238"/>
<path opacity="0.4" d="M143.476 332.934C140.239 339.292 140.546 349.115 141.664 357.407L142.464 357.878C145.494 351.417 147.146 344.074 147.259 336.567C147.259 335.76 147.259 334.885 147.259 334.162L143.476 332.934Z" fill="black"/>
<path d="M183.849 316.013C183.849 316.013 192.747 328.695 184.342 407.177H139.68C139.373 398.515 143.676 356.28 137.016 315.475C141.952 314.276 146.944 313.478 151.961 313.086C158.287 312.632 164.629 312.632 170.955 313.086C175.306 313.643 179.617 314.621 183.849 316.013Z" fill="#407BFF"/>
<path opacity="0.6" d="M183.849 316.013C183.849 316.013 192.747 328.695 184.342 407.177H139.68C139.373 398.515 143.676 356.28 137.016 315.475C141.952 314.276 146.944 313.478 151.961 313.086C158.287 312.632 164.629 312.632 170.955 313.086C175.306 313.643 179.617 314.621 183.849 316.013Z" fill="#FAFAFA"/>
<path opacity="0.2" d="M187.752 339.998L187.592 339.813L178.707 333.825C177.802 351.099 183.916 361.931 187.552 366.658C188.008 357.783 188.074 348.883 187.752 339.998Z" fill="black"/>
<path opacity="0.2" d="M172.287 651.017L171.794 663.615H162.177L162.67 651.017H172.287Z" fill="black"/>
<path opacity="0.2" d="M106.646 648.023L116.383 648.662L113.333 661.075L103.596 660.419L106.646 648.023Z" fill="black"/>
<path d="M150.402 278.252C152.547 288.344 153.399 294.416 158.394 298.621C165.827 304.945 175.071 297.679 175.364 286.965C175.617 277.327 172.074 262.408 163.483 260.372C161.586 259.898 159.624 260.047 157.786 260.803C155.947 261.559 154.293 262.897 152.981 264.691C151.669 266.484 150.743 268.673 150.292 271.047C149.84 273.421 149.878 275.902 150.402 278.252Z" fill="#B55B52"/>
<path d="M168.504 407.177C168.504 407.177 159.02 487.762 153.852 517.971C148.125 551.106 117.569 660.436 117.569 660.436L102.61 656.349C102.61 656.349 121.778 567.203 126.586 520.981C128.451 502.934 130.702 473.885 133.553 449.614C136.31 426.066 139.706 407.194 139.706 407.194L168.504 407.177Z" fill="#263238"/>
<path d="M121.152 654.129L118.354 660.957L101.545 656.349L102.957 649.974L121.152 654.129Z" fill="#407BFF"/>
<path opacity="0.6" d="M121.152 654.129L118.354 660.957L101.545 656.349L102.957 649.974L121.152 654.129Z" fill="white"/>
<path opacity="0.6" d="M162.51 435.889C151.548 438.597 152.707 490.218 154.025 516.76C157.196 497.988 161.818 461.893 164.974 436.259C164.211 435.784 163.341 435.654 162.51 435.889Z" fill="black"/>
<path d="M184.342 407.177C184.342 407.177 188.804 486.029 187.898 518.189C186.952 551.644 174.392 661.159 174.392 661.159H160.246C160.246 661.159 159.726 553.511 159.1 520.729C158.408 484.902 154.984 407.16 154.984 407.16L184.342 407.177Z" fill="#263238"/>
<path d="M177.109 654.061C177.176 654.061 176.31 661.479 176.31 661.479H159.1L158.634 654.852L177.109 654.061Z" fill="#407BFF"/>
<path opacity="0.6" d="M177.109 654.061C177.176 654.061 176.31 661.479 176.31 661.479H159.1L158.634 654.852L177.109 654.061Z" fill="white"/>
<path d="M178.641 330.764C178.641 351.924 187.552 360.636 187.552 360.636L202.084 342.773C198.644 335.515 194.728 328.633 190.376 322.203C181.971 310.042 178.641 317.173 178.641 330.764Z" fill="#263238"/>
<path opacity="0.2" d="M174.805 290.8C174.508 291.86 174.011 292.813 173.356 293.575C172.702 294.337 171.909 294.886 171.048 295.173C170.101 295.417 169.242 296.039 168.596 296.948C167.951 297.857 167.554 299.004 167.465 300.219C169.19 299.491 170.754 298.258 172.029 296.621C173.305 294.984 174.256 292.989 174.805 290.8Z" fill="black"/>
<path d="M171.048 258.152C174.032 253.392 169.437 253.106 169.437 253.106C170.635 247.438 165.254 250.482 165.254 250.482C162.031 244.864 160.206 251.71 160.206 251.71C156.863 246.95 156.21 254.721 156.21 254.721C152.853 248.682 151.148 257.395 151.148 257.395C148.058 251.121 146.167 259.279 146.167 259.279C139.786 256.403 142.81 264.779 142.81 264.779C137.375 264.964 141.744 270.296 141.744 270.296C135.218 270.296 140.972 275.023 140.972 275.023C135.79 279.312 142.304 280.472 142.304 280.472C138.081 288.882 145.341 285.72 145.341 285.72C142.397 293.995 148.911 290.346 148.911 290.346C148.498 298.318 152.134 296.148 153.892 294.668C154.225 296.35 154.865 298.032 156.037 298.167C158.314 298.554 158.701 293.121 158.701 293.121C158.701 293.121 160.805 295.207 162.577 294.08C164.348 292.953 163.682 290.11 163.682 290.11C164.067 290.473 164.534 290.669 165.014 290.669C165.495 290.669 165.962 290.473 166.346 290.11C167.106 289.37 167.106 284.021 166.147 282.137L169.61 280.455C169.61 280.455 172.181 280.001 171.035 275.712C170.344 273.247 170.283 270.57 170.862 268.059C174.778 265.738 171.555 263.013 171.555 263.013C176.097 259.329 171.048 258.152 171.048 258.152Z" fill="#263238"/>
<path d="M164.029 278.622C164.571 281.131 165.756 283.343 167.399 284.913C169.57 286.965 171.195 284.913 171.035 281.835C170.902 279.043 169.597 274.619 167.199 273.778C164.801 272.937 163.456 275.645 164.029 278.622Z" fill="#B55B52"/>
</svg>
