<svg width="75" height="63" viewBox="0 0 75 63" fill="none" xmlns="http://www.w3.org/2000/svg">
<g clip-path="url(#clip0_22_4785)">
<path d="M33.2771 7.38764L22.0158 58.0337C21.3717 60.9237 18.5564 63 15.2779 63C10.9428 63 7.69326 59.4331 8.54002 55.6124L19.8012 4.96632C20.4454 2.07635 23.2607 0 26.5392 0C30.8743 0 34.1238 3.5669 33.2771 7.38764Z" fill="#0B5CAA"/>
<path d="M64.8027 23.1393L57.0443 58.0337C56.4002 60.9236 53.5849 63 50.3064 63C45.9712 63 42.7217 59.4331 43.5685 55.6123L51.3268 20.7179C51.971 17.828 54.7863 15.7516 58.0648 15.7516C62.3999 15.7516 65.6494 19.3185 64.8027 23.1393Z" fill="#0B5CAA"/>
<path d="M75 56.6994C75 60.1816 71.8663 63 67.9943 63C64.1224 63 60.9886 60.1816 60.9886 56.6994C60.9886 53.2171 64.1224 50.3987 67.9943 50.3987C71.8663 50.3987 75 53.2171 75 56.6994Z" fill="#FDB71D"/>
<path d="M68.5805 6.32018C68.5805 9.80246 65.4468 12.6208 61.5748 12.6208C57.7029 12.6208 54.5692 9.80246 54.5692 6.32018C54.5692 2.8379 57.7029 0.0195312 61.5748 0.0195312C65.4468 0.0195312 68.5805 2.8379 68.5805 6.32018Z" fill="#EA2D30"/>
<path d="M6.92609 25.3588H38.4517C42.7868 25.3588 46.0364 28.8476 45.1896 32.6683L45.139 32.8376C44.4948 35.7275 41.6795 37.7258 38.4011 37.7258H6.86819C2.53306 37.7258 -0.716481 34.1979 0.137518 30.3707L0.188179 30.221C0.832298 27.331 3.6476 25.3523 6.92609 25.3523" fill="#EA2D30"/>
</g>
<defs>
<clipPath id="clip0_22_4785">
<rect width="75" height="63" fill="white"/>
</clipPath>
</defs>
</svg>
