<svg width="230" height="39" viewBox="0 0 230 39" fill="none" xmlns="http://www.w3.org/2000/svg">
<g clip-path="url(#clip0_41_12458)">
<path d="M25.7905 4.57548L17.0618 35.9273C16.9244 36.4197 16.6534 36.8878 16.2641 37.3049C15.8749 37.722 15.375 38.08 14.7932 38.3583C14.2113 38.6367 13.5588 38.83 12.8729 38.9273C12.187 39.0245 11.4812 39.0238 10.7957 38.9251C10.1102 38.8265 9.45847 38.6318 8.87773 38.3522C8.29698 38.0726 7.7986 37.7136 7.41102 37.2957C7.02344 36.8778 6.75427 36.4091 6.61887 35.9165C6.48346 35.4239 6.48448 34.9169 6.62187 34.4245L15.3506 3.09852C15.4785 2.60133 15.7426 2.12733 16.1274 1.70396C16.5123 1.28059 17.0103 0.916285 17.5925 0.632146C18.1748 0.348006 18.8298 0.149682 19.5196 0.0486659C20.2093 -0.0523506 20.9202 -0.0540519 21.6108 0.0436606C22.3015 0.141373 22.9584 0.336557 23.5433 0.617903C24.1282 0.899249 24.6295 1.26116 25.0183 1.68268C25.407 2.10419 25.6755 2.57693 25.8081 3.07349C25.9406 3.57006 25.9347 4.08058 25.7905 4.57548Z" fill="#0B5CAA"/>
<path d="M50.2297 14.3255L44.2117 35.9273C44.1071 36.4407 43.858 36.9334 43.4796 37.3754C43.1013 37.8174 42.6016 38.1994 42.011 38.4982C41.4204 38.797 40.7513 39.0063 40.0444 39.1133C39.3375 39.2203 38.6077 39.2228 37.8995 39.1206C37.1912 39.0185 36.5194 38.8138 35.9248 38.5191C35.3303 38.2243 34.8255 37.8457 34.4413 37.4064C34.0571 36.967 33.8015 36.476 33.6901 35.9633C33.5787 35.4507 33.6138 34.9271 33.7933 34.4245L39.8114 12.8227C39.9487 12.3304 40.2198 11.8623 40.609 11.4451C40.9983 11.028 41.4981 10.6701 42.08 10.3917C42.6619 10.1133 43.3144 9.91999 44.0003 9.82274C44.6861 9.72548 45.392 9.72621 46.0775 9.82489C46.763 9.92356 47.4147 10.1182 47.9954 10.3978C48.5762 10.6774 49.0746 11.0364 49.4622 11.4543C49.8497 11.8722 50.1189 12.3409 50.2543 12.8335C50.3897 13.3262 50.3887 13.8331 50.2513 14.3255" fill="#0B5CAA"/>
<path d="M58.1389 35.1165C58.1404 35.8889 57.8228 36.6442 57.2264 37.287C56.6299 37.9297 55.7815 38.4309 54.7884 38.7272C53.7953 39.0234 52.7021 39.1015 51.6472 38.9514C50.5923 38.8014 49.6231 38.43 48.8622 37.8842C48.1013 37.3384 47.5829 36.6427 47.3726 35.8853C47.1622 35.1278 47.2695 34.3425 47.6807 33.6288C48.0919 32.9152 48.7886 32.3051 49.6826 31.8759C50.5767 31.4467 51.6279 31.2176 52.7033 31.2176C53.4167 31.2169 54.1234 31.3172 54.7829 31.5129C55.4423 31.7085 56.0416 31.9956 56.5464 32.3577C57.0513 32.7198 57.4518 33.1499 57.725 33.6233C57.9983 34.0966 58.1389 34.6041 58.1389 35.1165Z" fill="#FDB71D"/>
<path d="M53.1563 3.91446C53.152 4.68494 52.83 5.43723 52.2309 6.07637C51.6318 6.71551 50.7826 7.21284 49.7903 7.50557C48.798 7.7983 47.7072 7.87331 46.6556 7.72112C45.604 7.56893 44.6387 7.19637 43.8817 6.65048C43.1247 6.10459 42.6098 5.40984 42.4021 4.65394C42.1943 3.89804 42.3031 3.11488 42.7146 2.40334C43.1261 1.6918 43.8219 1.08378 44.7141 0.656034C45.6064 0.228291 46.655 6.08251e-06 47.7278 0C49.1675 0 50.5483 0.410783 51.5663 1.14198C52.5843 1.87318 53.1563 2.8649 53.1563 3.89897" fill="#EA2D30"/>
<path d="M5.37116 15.601H29.8173C30.6054 15.6006 31.3838 15.726 32.0962 15.968C32.8086 16.21 33.4372 16.5626 33.9367 17.0004C34.4362 17.4383 34.7941 17.9503 34.9844 18.4996C35.1747 19.0488 35.1928 19.6216 35.0373 20.1765L34.9942 20.3263C34.7604 21.1978 34.1116 21.9836 33.1591 22.549C32.2066 23.1144 31.0099 23.424 29.7742 23.4248H5.32802C4.53623 23.426 3.75405 23.3003 3.03852 23.0568C2.32299 22.8133 1.69214 22.4581 1.19199 22.0172C0.691835 21.5764 0.334986 21.0609 0.147464 20.5084C-0.040058 19.9558 -0.0535252 19.3802 0.108045 18.8235L0.143995 18.6737C0.387892 17.807 1.04161 17.0276 1.99432 16.4676C2.94702 15.9075 4.14006 15.6014 5.37116 15.601Z" fill="#EA2D30"/>
<path d="M73.6477 37.3475C73.5532 37.8118 73.2197 38.2338 72.713 38.5301C72.2746 38.8294 71.6929 38.9963 71.088 38.9963C70.4832 38.9963 69.9014 38.8294 69.4631 38.5301C69.2727 38.3685 69.1347 38.1787 69.0588 37.9742C68.983 37.7697 68.9712 37.5556 69.0245 37.3475L71.3541 25.4079C71.4511 24.9554 71.7636 24.5411 72.2384 24.2356C72.6771 23.9246 73.2686 23.7503 73.885 23.7503C74.5013 23.7503 75.0928 23.9246 75.5315 24.2356C75.7218 24.3974 75.8608 24.5869 75.9391 24.7911C76.0173 24.9953 76.0328 25.2093 75.9845 25.4182L73.6477 37.3475Z" fill="white"/>
<path d="M86.2808 37.3475C86.1863 37.8118 85.8528 38.2338 85.3461 38.5301C84.9077 38.8294 84.326 38.9963 83.7212 38.9963C83.1163 38.9963 82.5346 38.8294 82.0962 38.5301C81.9061 38.3705 81.7681 38.1824 81.6922 37.9796C81.6164 37.7767 81.6045 37.5643 81.6576 37.3578L83.9944 25.4182C84.0854 24.9654 84.396 24.5502 84.8716 24.2459C85.3102 23.9349 85.9018 23.7606 86.5181 23.7606C87.1344 23.7606 87.7259 23.9349 88.1646 24.2459C88.3562 24.4071 88.496 24.5966 88.5743 24.801C88.6526 25.0054 88.6674 25.2196 88.6176 25.4285L86.2808 37.3475Z" fill="white"/>
<path d="M79.7234 29.7045C80.019 29.6992 80.3123 29.7431 80.5805 29.8327C80.8486 29.9222 81.0843 30.0551 81.2692 30.2209C81.6131 30.5825 81.7552 31.0237 81.6673 31.4571C81.5794 31.8904 81.2679 32.2842 80.7947 32.5603C80.3299 32.8687 79.7233 33.0433 79.0906 33.0509H72.1954C71.9079 33.0573 71.6219 33.0185 71.3574 32.9373C71.0929 32.8562 70.8562 32.7345 70.6639 32.5809C70.2962 32.2232 70.1371 31.7766 70.2203 31.336C70.3036 30.8953 70.6226 30.4953 71.1097 30.2209C71.5793 29.8984 72.2001 29.7141 72.8497 29.7045H79.7234Z" fill="white"/>
<path d="M102.163 38.9019H91.3782C91.0893 38.9084 90.802 38.8687 90.5371 38.7857C90.2722 38.7026 90.0364 38.5782 89.8467 38.4216C89.6566 38.262 89.5186 38.0739 89.4427 37.8711C89.3669 37.6683 89.355 37.4559 89.4081 37.2493L91.7017 25.506C91.794 25.0523 92.1074 24.6369 92.5861 24.3337C93.0553 24.0108 93.6764 23.8264 94.3261 23.8173H105.111C105.393 23.8115 105.674 23.8506 105.932 23.9319C106.191 24.0131 106.421 24.1345 106.607 24.2872C106.793 24.4433 106.929 24.627 107.005 24.8252C107.08 25.0234 107.094 25.2312 107.045 25.4337C106.956 25.8816 106.635 26.2891 106.147 26.5749C105.685 26.8618 105.096 27.0211 104.486 27.0242H96.0086L95.4765 29.7406H102.983C103.264 29.7345 103.544 29.773 103.803 29.8534C104.061 29.9337 104.292 30.0539 104.478 30.2054C104.664 30.3626 104.8 30.5472 104.876 30.7462C104.952 30.9452 104.966 31.1537 104.917 31.357C104.815 31.7947 104.504 32.1931 104.036 32.4835C103.569 32.7739 102.975 32.938 102.357 32.9476H94.851L94.3117 35.6794H102.818C103.102 35.6729 103.385 35.7123 103.645 35.7947C103.906 35.877 104.138 36.0002 104.323 36.1553C104.509 36.3103 104.643 36.4932 104.718 36.6906C104.792 36.888 104.803 37.0948 104.752 37.2958C104.662 37.7438 104.341 38.1512 103.853 38.4371C103.392 38.7247 102.803 38.8841 102.192 38.8864" fill="white"/>
<path d="M122.59 39C122.244 39.0075 121.902 38.9475 121.599 38.8266C121.297 38.7057 121.046 38.5283 120.872 38.3132L116.853 33.9081L111.151 38.3493C110.91 38.5475 110.614 38.7076 110.282 38.8196C109.951 38.9316 109.59 38.993 109.224 39C108.951 39.0018 108.681 38.9607 108.433 38.8795C108.184 38.7983 107.963 38.6791 107.786 38.5301C107.607 38.3775 107.476 38.1986 107.403 38.006C107.329 37.8133 107.315 37.6115 107.362 37.4146C107.427 37.0303 107.656 36.6698 108.016 36.3818L114.696 31.357L110.008 26.4045C109.74 26.0968 109.64 25.729 109.727 25.3717C109.81 24.92 110.123 24.5062 110.605 24.2098C110.966 23.9708 111.419 23.8151 111.904 23.7627C112.39 23.7102 112.886 23.7634 113.33 23.9154C113.625 24.0284 113.873 24.196 114.049 24.4008L118.003 28.7904L123.705 24.3492C123.909 24.1781 124.159 24.0381 124.44 23.9376C124.72 23.8371 125.026 23.7782 125.34 23.7642C125.653 23.7502 125.967 23.7816 126.263 23.8563C126.558 23.9311 126.831 24.0478 127.063 24.1994C127.255 24.354 127.397 24.5379 127.477 24.7373C127.556 24.9368 127.572 25.1466 127.523 25.351C127.453 25.6999 127.243 26.0266 126.919 26.2909L120.225 31.3467L124.913 36.3559C125.049 36.4994 125.145 36.6609 125.195 36.8311C125.244 37.0012 125.246 37.1767 125.2 37.3475C125.114 37.796 124.808 38.2078 124.338 38.5094C123.864 38.8339 123.238 39.0182 122.583 39.0258" fill="white"/>
<path d="M143.729 39C143.292 39.0064 142.864 38.9123 142.507 38.7315C142.164 38.5514 141.911 38.2957 141.788 38.0033L140.803 35.4212H133.081L131.111 37.962C130.87 38.2781 130.518 38.5434 130.09 38.7315C129.651 38.9428 129.123 39.0368 128.597 38.9972C128.072 38.9575 127.582 38.7868 127.214 38.5146C127.036 38.3522 126.908 38.165 126.837 37.9648C126.767 37.7647 126.755 37.5561 126.804 37.3526C126.861 37.1099 126.98 36.877 127.156 36.6658L136.309 25.0102C136.586 24.6666 136.961 24.3691 137.409 24.1375C137.907 23.8788 138.506 23.7412 139.121 23.745H139.387C139.956 23.729 140.513 23.8673 140.947 24.1323C141.289 24.3709 141.537 24.6702 141.666 24.9999L146.267 36.6658C146.364 36.8894 146.394 37.1254 146.354 37.3578C146.265 37.8059 145.96 38.2173 145.491 38.5197C145.015 38.8445 144.386 39.0289 143.729 39.0362M135.547 32.3227H139.566L138.236 28.8472L135.547 32.3227Z" fill="white"/>
<path d="M164.652 39C164.081 39.0068 163.527 38.8635 163.092 38.5972C162.658 38.3361 162.376 37.9676 162.301 37.5644L160.482 30.0711L155.708 37.585C155.459 38.0039 155.047 38.3624 154.522 38.6179C154.056 38.8723 153.488 39.0122 152.903 39.0169C152.317 39.0215 151.745 38.8907 151.272 38.6437C150.844 38.3776 150.559 38.0122 150.466 37.6109L147.454 25.9346C147.419 25.7461 147.419 25.5551 147.454 25.3666C147.522 24.9149 147.828 24.4991 148.309 24.2046C148.729 23.9254 149.274 23.7627 149.846 23.7457C150.418 23.7286 150.979 23.8584 151.43 24.1117C151.766 24.3432 151.986 24.6483 152.055 24.9792L153.932 33.242L159.051 25.0412C159.284 24.6598 159.667 24.3351 160.151 24.1065C160.593 23.8772 161.124 23.7537 161.669 23.7537C162.213 23.7537 162.744 23.8772 163.186 24.1065C163.579 24.345 163.835 24.6799 163.905 25.0464L165.803 33.242L170.908 24.9792C171.121 24.6317 171.459 24.3307 171.886 24.1065C172.327 23.851 172.884 23.72 173.45 23.7381C174.017 23.7562 174.555 23.922 174.963 24.2046C175.151 24.3705 175.284 24.5655 175.35 24.7742C175.416 24.9829 175.414 25.1998 175.344 25.4079C175.307 25.5865 175.234 25.7604 175.128 25.9243L167.528 37.5902C167.256 38.0047 166.837 38.3608 166.313 38.623C165.818 38.8678 165.232 38.9992 164.631 39" fill="white"/>
<path d="M188.595 39C188.158 39.0064 187.73 38.9123 187.373 38.7315C187.029 38.5514 186.777 38.2958 186.654 38.0033L185.669 35.4212H177.947L175.977 37.962C175.735 38.2781 175.383 38.5434 174.956 38.7315C174.517 38.9428 173.988 39.0368 173.463 38.9972C172.937 38.9575 172.448 38.7868 172.08 38.5146C171.902 38.3522 171.774 38.165 171.703 37.9648C171.633 37.7647 171.621 37.5561 171.67 37.3527C171.727 37.11 171.846 36.877 172.022 36.6658L181.175 25.0102C181.449 24.6654 181.825 24.3676 182.275 24.1375C182.772 23.8788 183.372 23.7412 183.986 23.745H184.252C184.821 23.73 185.378 23.8682 185.813 24.1323C186.168 24.3678 186.428 24.6674 186.567 24.9999L191.133 36.6658C191.23 36.8895 191.26 37.1254 191.219 37.3578C191.131 37.8059 190.825 38.2173 190.357 38.5198C189.88 38.8445 189.252 39.0289 188.595 39.0362M180.413 32.3227H184.432L183.102 28.8472L180.413 32.3227Z" fill="white"/>
<path d="M207.375 39C207.026 39.0109 206.678 38.9526 206.372 38.8314C206.065 38.7103 205.81 38.5311 205.635 38.3132L198.841 30.603L204.255 30.5669L209.676 36.3559C209.815 36.4988 209.912 36.66 209.963 36.8303C210.014 37.0006 210.016 37.1764 209.971 37.3475C209.882 37.7955 209.577 38.2069 209.108 38.5094C208.633 38.835 208.004 39.0195 207.347 39.0258" fill="white"/>
<path d="M194.98 39C194.688 39.0087 194.398 38.9698 194.131 38.8862C193.863 38.8026 193.626 38.6765 193.436 38.5173C193.246 38.3582 193.109 38.1703 193.035 37.9676C192.962 37.765 192.953 37.5529 193.01 37.3475L195.325 25.506C195.412 25.0512 195.726 24.6346 196.209 24.3337C196.677 24.009 197.299 23.8244 197.949 23.8173H204.197C206.886 23.8173 208.885 24.2407 210.136 25.0773C210.782 25.5102 211.263 26.0541 211.535 26.6577C211.807 27.2613 211.86 27.9046 211.689 28.527C211.459 29.7251 210.129 33.6241 202.817 33.6241H198.33L197.611 37.332C197.517 37.795 197.186 38.2164 196.684 38.5146C196.205 38.8141 195.593 38.9808 194.958 38.9845M198.963 30.3964H202.759C203.862 30.4379 204.96 30.2591 205.93 29.88C206.243 29.7622 206.512 29.5908 206.711 29.3809C206.91 29.1711 207.035 28.9293 207.073 28.6768C207.146 28.4702 207.137 28.2531 207.049 28.0498C206.96 27.8465 206.794 27.6649 206.57 27.5252C206.211 27.3134 205.348 27.0604 203.306 27.0604H199.653L198.963 30.3964Z" fill="white"/>
<path d="M224.991 38.9019H214.206C213.916 38.9092 213.627 38.8699 213.361 38.7868C213.095 38.7037 212.858 38.5789 212.668 38.4216C212.48 38.2607 212.344 38.0725 212.269 37.8701C212.193 37.6677 212.179 37.4559 212.229 37.2493L214.53 25.506C214.624 25.0539 214.934 24.6394 215.407 24.3337C215.879 24.0104 216.502 23.8262 217.154 23.8173H227.939C228.221 23.8115 228.502 23.8506 228.76 23.9319C229.019 24.0131 229.249 24.1345 229.435 24.2872C229.619 24.4441 229.753 24.628 229.827 24.8261C229.902 25.0241 229.915 25.2315 229.866 25.4337C229.779 25.8809 229.46 26.2882 228.975 26.5749C228.513 26.8618 227.924 27.0211 227.314 27.0242H218.829L218.305 29.7406H225.811C226.092 29.7353 226.372 29.7741 226.63 29.8543C226.888 29.9346 227.119 30.0544 227.306 30.2054C227.491 30.363 227.626 30.5478 227.7 30.7468C227.775 30.9458 227.787 31.1541 227.738 31.357C227.639 31.7947 227.329 32.1936 226.863 32.4842C226.396 32.7749 225.803 32.9388 225.185 32.9476H217.672L217.14 35.6949H225.617C225.901 35.6883 226.184 35.7276 226.444 35.8099C226.704 35.8923 226.936 36.0156 227.121 36.1708C227.306 36.326 227.44 36.5091 227.513 36.7065C227.586 36.9039 227.597 37.1106 227.544 37.3113C227.456 37.7585 227.138 38.1658 226.652 38.4526C226.191 38.7402 225.602 38.8996 224.991 38.9019Z" fill="white"/>
</g>
<defs>
<clipPath id="clip0_41_12458">
<rect width="229.895" height="39" fill="white"/>
</clipPath>
</defs>
</svg>
